<?xml version="1.0" encoding="UTF-8"?><svg xmlns="http://www.w3.org/2000/svg" width="100%" height="100%"><defs><font id="web" horiz-adv-x="1150"><!--



NOTICE: This font software is the valuable property 
of Webtype LLC, The Font Bureau, Webtype and/or its 
suppliers and its use by you is covered under the terms 
of the Web Font license agreement between you and Webtype 
LLC. You may ONLY use this font software with the licensed 
web site. Except as specifically permitted by the license, 
you may not copy this font software. If you have any 
questions, please contact Webtype.com. 

For more information, please visit http://www.webtype.com/store/license/?id=23

Licensed to: www.softlayer.com

Serial number: SH-801
--><font-face font-family="" units-per-em="2048" panose-1="2 0 5 3 0 0 0 2 0 4" ascent="2025" descent="-569" alphabetic="0"/><missing-glyph horiz-adv-x="1024" d="M0 1434H1024V0H0V1434ZM102 102H922V1331H102V102Z"/><glyph unicode=" " horiz-adv-x="442"/><glyph unicode="!" horiz-adv-x="621" d="M250 1516H371L334 397H287L250 1516ZM242 164H379V0H242V164Z"/><glyph unicode="&quot;" horiz-adv-x="803" d="M516 1411V1516H627V1411L592 1010H551L516 1411ZM176 1411V1516H287V1411L252 1010H211L176 1411Z"/><glyph unicode="#" horiz-adv-x="1423" d="M340 459H98V547H358L446 969H186V1057H465L561 1516H655L559 1057H989L1085 1516H1180L1083 1057H1325V969H1065L977 547H1237V459H958L862 0H768L864 459H434L338 0H244L340 459ZM883 547L971 969H541L453 547H883Z"/><glyph unicode="$" horiz-adv-x="1309" d="M606 -6Q504 0 425 29T287 99T189 186T129 272L211 324Q245 271 284 228T370 155T476 106T608 84V756Q520 783 441 815T303 893T209 1003T174 1159Q174 1231 202 1295T286 1410T421 1491T606 1526V1677H696V1524Q781 1517 846 1493T960 1435T1045 1358T1106 1272L1024 1217Q994 1264 963 1302T894 1367T807 1410T694 1432V829Q782 802 868 771T1022 691T1132 569T1174 387Q1174 300 1140 230T1044 108T893 27T696 -8V-190H606V-6ZM694 86Q769 90 837 107T957 158T1040 247T1071 381Q1071 462 1040 518T957 613T836 679T694 729V86ZM608 1434Q522 1430 460 1407T356 1348T296 1265T276 1165Q276 1097 302 1049T374 966T480 904T608 856V1434Z"/><glyph unicode="%" horiz-adv-x="1921" d="M459 645Q381 645 321 677T219 768T156 907T135 1085Q135 1189 158 1272T224 1414T327 1504T463 1536Q538 1536 597 1505T698 1417T762 1277T784 1094Q784 997 763 915T700 773T598 679T459 645ZM1460 -20Q1382 -20 1322 12T1220 103T1158 242T1137 420Q1137 523 1160 606T1226 748T1329 838T1464 870Q1539 870 1598 839T1699 751T1763 611T1786 428Q1786 331 1764 249T1701 107T1599 14T1460 -20ZM461 733Q515 733 557 761T627 838T671 952T686 1090Q686 1169 671 1234T627 1347T556 1421T459 1448Q404 1448 362 1420T292 1344T248 1232T233 1094Q233 1015 248 949T292 834T363 760T461 733ZM1462 68Q1517 68 1559 96T1629 172T1673 286T1688 424Q1688 503 1673 569T1629 682T1558 755T1460 782Q1406 782 1364 754T1294 678T1250 566T1235 428Q1235 349 1250 283T1294 169T1365 95T1462 68ZM1364 1516H1462L557 0H459L1364 1516Z"/><glyph unicode="&amp;" horiz-adv-x="1466" d="M586 -29Q460 -29 367 -1T213 80T122 208T92 375Q92 456 120 523T197 648T311 753T451 842Q397 935 371 1019T344 1194Q344 1262 365 1325T429 1437T534 1515T680 1544Q753 1544 809 1523T903 1464T961 1374T981 1262Q981 1185 951 1122T867 1004T743 904T588 815Q617 770 655 719T739 608Q821 502 891 421T1024 279Q1095 370 1138 489T1198 752H1303Q1281 594 1228 458T1092 219Q1182 142 1257 110T1405 78V-20Q1353 -17 1306 -7T1213 23T1121 74T1024 150Q936 66 828 19T586 -29ZM543 887Q610 921 671 959T778 1041T852 1139T879 1257Q879 1296 868 1331T833 1393T771 1436T678 1452Q619 1452 576 1432T504 1378T461 1297T446 1198Q446 1157 451 1120T468 1045T498 969T543 887ZM588 63Q700 63 794 101T961 209Q895 272 821 358T653 559Q607 618 568 669T496 768Q428 730 373 687T278 595T217 492T195 377Q195 305 219 247T292 148T415 85T588 63Z"/><glyph unicode="'" horiz-adv-x="463" d="M176 1411V1516H287V1411L252 1010H211L176 1411Z"/><glyph unicode="(" horiz-adv-x="811" d="M520 -315T425 -204T266 28T170 278T137 553Q137 697 169 827T266 1078T425 1309T645 1526L688 1475Q588 1386 507 1283T369 1063T281 819T250 553Q250 415 281 287T369 43T507 -177T688 -369L645 -420Q520 -315 425 -204Z"/><glyph unicode=")" horiz-adv-x="811" d="M123 -369Q223 -281 304 -177T442 43T530 287T561 553Q561 691 530 819T442 1063T304 1282T123 1475L166 1526Q291 1421 386 1310T545 1078T641 828T674 553Q674 409 642 279T545 28T386 -203T166 -420L123 -369Z"/><glyph unicode="*" horiz-adv-x="1040" d="M268 797L487 1112L102 1085V1180L487 1153L268 1468L354 1520L520 1171L686 1520L772 1468L553 1153L938 1180V1085L553 1112L772 797L686 745L520 1094L354 745L268 797Z"/><glyph unicode="+" horiz-adv-x="1298" d="M602 618H133V709H602V1180H696V709H1165V618H696V147H602V618Z"/><glyph unicode="," horiz-adv-x="543" d="M256 0H203V164H340V12L260 -199H215L256 0Z"/><glyph unicode="-" horiz-adv-x="731" d="M143 692H588V594H143V692Z"/><glyph unicode="." horiz-adv-x="543" d="M203 164H340V0H203V164Z"/><glyph unicode="/" horiz-adv-x="1081" d="M928 1516H1034L154 0H47L928 1516Z"/><glyph unicode="0" horiz-adv-x="1317" d="M659 -29Q529 -29 429 27T261 187T157 435T121 758Q121 935 156 1080T260 1328T429 1487T659 1544Q789 1544 889 1488T1057 1328T1161 1080T1196 758Q1196 581 1161 436T1058 187T889 28T659 -29ZM659 61Q761 61 842 107T979 242T1066 460T1096 758Q1096 925 1065 1055T976 1273T839 1408T659 1454Q557 1454 476 1408T338 1274T251 1055T221 758Q221 590 252 461T341 242T479 107T659 61Z"/><glyph unicode="1" horiz-adv-x="872" d="M135 94H424V1399Q396 1384 361 1372T287 1350T210 1335T139 1329V1417Q227 1420 304 1444T432 1516H524V94H786V0H135V94Z"/><glyph unicode="2" horiz-adv-x="1190" d="M109 33Q109 115 134 194T219 355T379 523T629 705Q713 759 773 808T872 908T928 1012T946 1128Q946 1200 925 1260T861 1363T756 1430T610 1454Q476 1454 384 1387T225 1178L141 1219Q216 1380 336 1462T614 1544Q714 1544 794 1514T930 1429T1017 1299T1047 1135Q1047 1054 1025 988T955 860T829 737T643 606Q428 469 323 337T215 94H1053V0H109V33Z"/><glyph unicode="3" horiz-adv-x="1194" d="M575 -29Q494 -29 420 -10T282 47T164 138T70 260L154 311Q236 179 341 120T578 61Q667 61 738 86T858 156T934 263T961 399Q961 487 935 555T848 669T690 738T449 762H395V852H461Q585 852 674 871T820 928T903 1025T930 1161Q930 1222 911 1275T849 1369T742 1431T586 1454Q524 1454 472 1439T374 1398T291 1335T221 1255L139 1309Q178 1358 224 1401T325 1475T446 1525T588 1544Q707 1544 791 1512T928 1426T1005 1305T1030 1167Q1030 1093 1008 1032T946 924T849 849T721 807Q891 772 976 674T1061 403Q1061 313 1028 235T931 98T778 5T575 -29Z"/><glyph unicode="4" horiz-adv-x="1208" d="M801 389H74V461L764 1516H899V481H1155V389H899V0H801V389ZM801 481V1399H797L195 481H801Z"/><glyph unicode="5" horiz-adv-x="1180" d="M575 -29Q494 -29 422 -8T289 51T177 143T92 260L176 311Q209 256 249 210T338 131T447 80T578 61Q681 61 756 98T880 197T953 335T977 494Q977 592 949 668T872 795T757 874T612 901Q548 901 496 886T399 844T318 779T250 694L166 729L223 1516H997L987 1417H315L270 840Q300 875 334 903T411 950T503 980T614 991Q713 991 797 957T944 859T1041 705T1077 500Q1077 388 1042 292T942 124T784 12T575 -29Z"/><glyph unicode="6" horiz-adv-x="1231" d="M639 -29Q534 -29 440 16T275 154T163 390T121 731Q121 896 161 1043T275 1302T455 1479T690 1544Q753 1544 804 1536T898 1512T975 1477T1040 1432L983 1352Q953 1376 924 1395T860 1427T784 1447T688 1454Q614 1454 551 1428T435 1354T342 1239T274 1091T232 917T219 723Q254 765 299 804T400 874T522 923T664 942Q787 942 876 905T1022 803T1106 654T1133 471Q1133 366 1099 275T1001 116T846 10T639 -29ZM645 61Q730 61 801 88T923 167T1002 295T1030 471Q1030 554 1009 624T942 744T826 823T657 852Q591 852 530 834T414 782T312 701T225 598Q238 458 276 357T371 190T497 93T645 61Z"/><glyph unicode="7" horiz-adv-x="1128" d="M913 1417H121V1516H1022V1423L369 0H262L913 1417Z"/><glyph unicode="8" horiz-adv-x="1229" d="M614 -29Q490 -29 393 2T228 87T126 211T90 360Q90 442 118 506T199 622T329 719T506 807Q425 842 361 879T253 962T184 1061T160 1184Q160 1254 191 1319T282 1434T425 1514T614 1544Q722 1544 807 1514T950 1433T1038 1318T1069 1184Q1069 1114 1046 1061T977 965T867 885T717 811Q819 766 897 722T1030 625T1111 508T1139 360Q1139 284 1104 214T1001 90T836 4T614 -29ZM616 854Q710 894 776 929T886 1001T949 1082T969 1184Q969 1233 948 1281T883 1368T772 1430T614 1454Q527 1454 461 1431T351 1371T283 1286T260 1190Q260 1133 280 1089T344 1007T455 932T616 854ZM614 61Q705 61 783 83T917 145T1006 241T1038 367Q1038 435 1010 489T927 590T792 679T610 764Q500 716 421 672T290 582T215 484T190 367Q190 300 222 244T311 147T445 84T614 61Z"/><glyph unicode="9" horiz-adv-x="1231" d="M541 -29Q474 -29 418 -19T315 11T228 55T156 111L211 188Q246 158 279 135T351 95T436 70T543 61Q654 61 741 118T889 275T981 508T1012 793Q977 751 932 712T831 642T709 592T567 573Q444 573 355 610T209 712T125 861T98 1044Q98 1149 132 1240T230 1399T385 1505T592 1544Q696 1544 790 1500T955 1362T1068 1126T1110 784Q1110 619 1070 472T955 213T776 36T541 -29ZM573 664Q639 664 700 682T817 734T919 815T1006 918Q993 1057 955 1158T860 1325T733 1422T586 1454Q500 1454 430 1427T308 1348T229 1220T201 1044Q201 961 222 892T289 772T405 693T573 664Z"/><glyph unicode=":" horiz-adv-x="543" d="M203 1075H340V911H203V1075ZM203 164H340V0H203V164Z"/><glyph unicode=";" horiz-adv-x="543" d="M256 0H203V164H340V12L260 -199H215L256 0ZM203 1075H340V911H203V1075Z"/><glyph unicode="&lt;" horiz-adv-x="1298" d="M100 621V707L1184 1167V1067L221 664L1184 260V160L100 621Z"/><glyph unicode="=" horiz-adv-x="1298" d="M131 944H1165V850H131V944ZM131 477H1165V383H131V477Z"/><glyph unicode="&gt;" horiz-adv-x="1298" d="M115 260L1077 664L115 1067V1167L1198 707V621L115 160V260Z"/><glyph unicode="?" horiz-adv-x="1077" d="M438 397Q436 425 435 460T434 530Q434 582 442 625T470 705T525 774T610 838Q676 878 724 912T803 984T849 1067T864 1174Q864 1238 842 1289T776 1377T672 1432T535 1452Q466 1452 412 1437T314 1393T233 1324T162 1233L84 1286Q125 1342 170 1389T269 1471T388 1525T537 1544Q631 1544 710 1518T846 1443T935 1327T967 1178Q967 1102 947 1045T890 943T805 863T700 793Q637 754 601 720T546 643T523 542T518 397H438ZM410 164H547V0H410V164Z"/><glyph unicode="@" horiz-adv-x="1778" d="M889 -29Q718 -29 574 27T325 187T161 435T102 758Q102 935 162 1080T328 1328T577 1487T889 1544Q1056 1544 1200 1488T1449 1331T1615 1089T1675 778Q1675 669 1649 584T1578 441T1473 353T1346 322Q1298 322 1260 334T1192 368T1142 418T1112 477Q1034 408 949 365T766 322Q698 322 641 342T541 402T475 505T451 653Q451 767 482 868T571 1045T710 1165T889 1210Q978 1210 1043 1178T1161 1096L1176 1192H1264L1178 590Q1172 549 1180 514T1211 452T1269 410T1350 395Q1401 395 1447 417T1527 487T1582 607T1602 778Q1602 932 1548 1060T1399 1281T1173 1424T889 1475Q736 1475 606 1423T381 1276T232 1049T178 758Q178 599 231 467T380 241T606 94T889 41Q1013 41 1114 70T1313 150L1343 88Q1244 35 1130 3T889 -29ZM762 401Q806 401 846 408T924 433T1002 477T1083 545L1149 999Q1092 1068 1025 1098T868 1128Q797 1128 737 1091T634 990T567 841T543 659Q543 590 559 541T604 461T673 416T762 401Z"/><glyph unicode="A" horiz-adv-x="1358" d="M618 1522H739L1276 0H1167L991 508H362L186 0H82L618 1522ZM958 600L678 1407H674L395 600H958Z"/><glyph unicode="B" horiz-adv-x="1391" d="M203 1516H711Q845 1516 941 1488T1099 1409T1190 1288T1219 1133Q1219 1058 1196 999T1132 896T1038 824T926 782V778Q996 765 1059 736T1169 661T1244 553T1272 410Q1272 325 1243 251T1153 121T994 33T760 0H203V1516ZM766 94Q870 94 946 115T1071 177T1145 276T1169 410Q1169 493 1137 554T1046 654T902 713T715 733H305V94H766ZM702 825Q799 825 876 843T1006 899T1087 992T1116 1126Q1116 1278 1018 1349T709 1421H305V825H702Z"/><glyph unicode="C" horiz-adv-x="1417" d="M745 -29Q603 -29 489 29T295 193T172 444T129 766Q129 930 172 1072T296 1319T490 1484T745 1544Q854 1544 941 1512T1094 1421T1207 1276T1280 1085L1182 1063Q1155 1159 1118 1232T1028 1353T905 1427T743 1452Q628 1452 534 1403T372 1263T268 1048T231 770Q231 603 268 472T373 250T536 111T748 63Q927 63 1041 167T1208 471L1305 449Q1277 338 1227 249T1105 99T944 4T745 -29Z"/><glyph unicode="D" horiz-adv-x="1438" d="M203 1516H567Q754 1516 893 1466T1125 1320T1263 1082T1309 758Q1309 576 1263 435T1123 198T891 51T567 0H203V1516ZM590 94Q735 94 849 133T1043 253T1164 460T1206 758Q1206 927 1164 1052T1042 1259T847 1381T586 1421H305V94H590Z"/><glyph unicode="E" horiz-adv-x="1223" d="M203 1516H1079V1421H305V852H887V758H305V94H1124V0H203V1516Z"/><glyph unicode="F" horiz-adv-x="1147" d="M203 1516H1065V1421H305V852H872V758H305V0H203V1516Z"/><glyph unicode="G" horiz-adv-x="1462" d="M743 -29Q599 -29 486 31T293 197T171 449T129 764Q129 942 176 1086T306 1332T503 1489T750 1544Q857 1544 944 1513T1097 1422T1210 1278T1284 1085L1186 1063Q1158 1160 1120 1232T1030 1354T908 1427T748 1452Q637 1452 543 1406T379 1271T271 1057T231 770Q231 611 267 481T369 258T532 114T748 63Q851 63 934 100T1076 206T1166 376T1194 604H803V698H1294V0H1194V238H1190Q1162 184 1123 136T1030 51T905 -7T743 -29Z"/><glyph unicode="H" horiz-adv-x="1483" d="M203 1516H305V850H1178V1516H1280V0H1178V756H305V0H203V1516Z"/><glyph unicode="I" horiz-adv-x="553" d="M225 1516H328V0H225V1516Z"/><glyph unicode="J" horiz-adv-x="1004" d="M424 -29Q353 -29 298 -12T198 35T121 106T61 195L143 242Q169 199 197 166T259 110T332 75T422 63Q485 63 537 80T628 137T688 238T709 389V1516H811V399Q811 292 784 212T706 78T584 -2T424 -29Z"/><glyph unicode="K" horiz-adv-x="1346" d="M203 1516H305V655L1081 1516H1210L688 946L1292 0H1171L616 866L305 526V0H203V1516Z"/><glyph unicode="L" horiz-adv-x="1147" d="M203 1516H305V94H1063V0H203V1516Z"/><glyph unicode="M" horiz-adv-x="1767" d="M203 1516H334L881 139H885L1434 1516H1565V0H1460V1325H1456Q1448 1304 1438 1276T1415 1215T1388 1146T1360 1075L928 0H834L401 1075Q387 1110 375 1140T352 1200T329 1259T305 1325H301V0H203V1516Z"/><glyph unicode="N" horiz-adv-x="1505" d="M203 1516H319L1200 201H1204V1516H1303V0H1214L305 1360H301V0H203V1516Z"/><glyph unicode="O" horiz-adv-x="1501" d="M752 -29Q614 -29 500 29T303 191T175 439T129 758Q129 932 174 1076T302 1325T499 1486T752 1544Q888 1544 1002 1487T1198 1325T1326 1077T1372 758Q1372 584 1327 440T1199 191T1002 29T752 -29ZM752 63Q863 63 958 110T1122 247T1231 466T1270 758Q1270 921 1231 1049T1123 1267T958 1404T752 1452Q640 1452 545 1405T380 1268T271 1050T231 758Q231 595 270 466T379 248T544 111T752 63Z"/><glyph unicode="P" horiz-adv-x="1300" d="M203 1516H696Q820 1516 915 1490T1074 1413T1172 1289T1206 1122Q1206 1016 1170 939T1065 810T899 734T680 709H305V0H203V1516ZM688 803Q786 803 863 819T994 872T1076 969T1104 1118Q1104 1201 1076 1258T995 1352T864 1404T686 1421H305V803H688Z"/><glyph unicode="Q" horiz-adv-x="1501" d="M1137 -375Q1025 -375 942 -349T805 -277T723 -166T696 -27Q569 -15 465 47T286 212T170 454T129 758Q129 932 174 1076T302 1325T499 1486T752 1544Q888 1544 1002 1487T1198 1325T1326 1077T1372 758Q1372 592 1331 453T1213 210T1032 45T799 -27Q803 -100 830 -148T902 -226T1007 -268T1139 -281H1243V-375H1137ZM752 63Q863 63 958 110T1122 247T1231 466T1270 758Q1270 921 1231 1049T1123 1267T958 1404T752 1452Q640 1452 545 1405T380 1268T271 1050T231 758Q231 595 270 466T379 248T544 111T752 63Z"/><glyph unicode="R" horiz-adv-x="1358" d="M203 1516H696Q820 1516 915 1490T1074 1413T1172 1289T1206 1122Q1206 1030 1180 962T1104 845T987 767T836 723L1227 0H1108L723 711H305V0H203V1516ZM688 803Q786 803 863 819T994 872T1076 969T1104 1118Q1104 1201 1076 1258T995 1352T864 1404T686 1421H305V803H688Z"/><glyph unicode="S" horiz-adv-x="1309" d="M666 -29Q561 -29 473 -1T317 80T201 208T129 379L229 403Q274 234 389 149T670 63Q762 63 836 85T962 146T1043 242T1071 367Q1071 430 1055 479T992 572T864 654T651 735Q524 776 434 816T286 905T201 1018T174 1169Q174 1245 207 1313T301 1432T445 1514T629 1544Q733 1544 815 1518T960 1445T1064 1333T1130 1188L1032 1159Q1005 1239 967 1294T877 1385T764 1436T627 1452Q546 1452 481 1430T371 1370T301 1282T276 1176Q276 1107 297 1059T369 971T505 897T721 819Q843 779 929 737T1069 643T1149 526T1174 373Q1174 278 1134 204T1025 78T864 -1T666 -29Z"/><glyph unicode="T" horiz-adv-x="1249" d="M573 1421H76V1516H1174V1421H676V0H573V1421Z"/><glyph unicode="U" horiz-adv-x="1460" d="M729 -29Q595 -29 495 13T328 127T227 294T193 496V1516H295V520Q295 425 320 342T399 196T535 99T731 63Q843 63 925 97T1060 192T1139 336T1165 516V1516H1268V502Q1268 395 1234 299T1133 130T964 14T729 -29Z"/><glyph unicode="V" horiz-adv-x="1331" d="M82 1516H188L666 137H670L1147 1516H1249L713 -6H618L82 1516Z"/><glyph unicode="W" horiz-adv-x="1880" d="M90 1516H195L449 543Q463 488 476 434T502 330T525 234T545 152H549Q556 188 566 233T589 328T614 433T641 541L883 1516H1001L1245 532Q1271 426 1295 330T1335 152H1339Q1359 240 1382 330T1432 524L1690 1516H1790L1386 0H1282L942 1374H938L596 0H494L90 1516Z"/><glyph unicode="X" horiz-adv-x="1315" d="M604 815L139 1516H258L659 897L1063 1516H1176L713 817L1249 0H1141L657 737L170 0H66L604 815Z"/><glyph unicode="Y" horiz-adv-x="1231" d="M563 674L59 1516H174L618 762L1061 1516H1171L666 674V0H563V674Z"/><glyph unicode="Z" horiz-adv-x="1260" d="M92 76L1028 1427H154V1516H1149V1440L213 88H1149V0H92V76Z"/><glyph unicode="[" horiz-adv-x="770" d="M188 1516H666V1434H289V-328H666V-410H188V1516Z"/><glyph unicode="\" horiz-adv-x="1081" d="M47 1516H154L1034 0H928L47 1516Z"/><glyph unicode="]" horiz-adv-x="770" d="M104 -328H481V1432H104V1516H582V-410H104V-328Z"/><glyph unicode="^" horiz-adv-x="1298" d="M606 1516H692L1153 698H1053L649 1413L246 698H145L606 1516Z"/><glyph unicode="_" horiz-adv-x="1024" d="M0 -154H1024V-244H0V-154Z"/><glyph unicode="`" horiz-adv-x="1024" d="M319 1501H473L668 1192H604L319 1501Z"/><glyph unicode="a" horiz-adv-x="1106" d="M412 -18Q264 -18 187 53T109 248Q109 325 145 392T266 515T494 618T848 700V766Q848 890 787 951T614 1012Q547 1012 491 1000T384 964T288 907T197 834L139 895Q189 941 240 978T350 1042T473 1083T616 1098Q700 1098 762 1075T865 1010T926 907T946 772V266Q946 167 953 105T977 0H872Q861 34 855 73T848 160Q749 75 641 29T412 -18ZM420 68Q541 68 648 117T848 256V627Q717 604 619 578T449 523T331 463T257 398T218 328T207 254Q207 163 263 116T420 68Z"/><glyph unicode="b" horiz-adv-x="1200" d="M633 -18Q577 -18 528 -5T435 32T350 88T270 158V0H172V1516H270V913Q304 951 343 984T427 1043T524 1083T637 1098Q730 1098 812 1064T955 960T1051 785T1087 539Q1087 398 1051 293T954 119T810 16T633 -18ZM639 68Q709 68 772 95T884 179T960 324T989 537Q989 659 960 748T883 896T770 983T635 1012Q580 1012 534 999T444 962T358 901T270 819V260Q315 214 359 178T448 118T540 81T639 68Z"/><glyph unicode="c" horiz-adv-x="1077" d="M561 -23Q469 -23 387 16T244 129T147 305T111 537Q111 678 149 783T252 958T401 1063T575 1098Q657 1098 720 1075T831 1013T914 921T975 811L891 766Q866 824 837 869T769 946T682 995T571 1012Q509 1012 445 988T329 907T243 761T209 539Q209 426 237 338T314 188T428 95T567 63Q628 63 676 78T764 125T835 203T899 311L977 272Q943 202 903 148T812 55T700 -3T561 -23Z"/><glyph unicode="d" horiz-adv-x="1200" d="M563 -18Q470 -18 388 15T245 118T149 291T113 537Q113 678 149 783T246 958T390 1063T567 1098Q622 1098 674 1084T772 1044T858 987T930 918V1516H1028V266Q1028 167 1035 105T1061 0H954Q945 29 938 73T930 162Q895 126 857 94T773 36T676 -3T563 -18ZM565 68Q620 68 666 80T756 117T842 178T930 260V819Q885 865 841 901T752 961T660 999T561 1012Q490 1012 427 985T315 899T239 752T211 539Q211 417 240 328T317 181T430 96T565 68Z"/><glyph unicode="e" horiz-adv-x="1104" d="M563 -23Q473 -23 391 15T247 125T148 301T111 539Q111 678 150 783T253 958T399 1063T567 1098Q662 1098 740 1060T875 950T962 776T993 547V532H209Q209 422 237 336T315 188T429 95T569 63Q632 63 682 77T774 120T850 191T915 287L987 242Q954 181 913 132T821 49T705 -4T563 -23ZM891 614Q886 697 864 769T801 896T702 981T565 1012Q502 1012 443 988T335 914T254 789T211 614H891Z"/><glyph unicode="f" horiz-adv-x="641" d="M246 987H57V1075H246V1257Q246 1326 267 1375T326 1455T419 1501T541 1516H594V1425Q582 1427 563 1427T528 1427Q487 1427 454 1418T396 1390T358 1340T344 1266V1075H582V987H344V0H246V987Z"/><glyph unicode="g" horiz-adv-x="1137" d="M559 -410Q304 -410 179 -338T53 -139Q53 -54 106 10T260 113Q207 133 183 167T158 252Q158 297 192 334T283 399Q208 449 166 527T123 709Q123 796 155 867T243 990T374 1069T535 1098Q623 1098 698 1070T831 987Q854 1003 883 1018T944 1046T1009 1068T1075 1083V977Q1023 977 971 968T874 938Q910 892 929 835T948 709Q948 619 915 548T826 428T695 352T537 326Q487 326 441 334T352 360Q309 343 283 319T256 260Q256 242 264 228T293 203T346 184T428 172L680 150Q764 142 830 122T941 69T1011 -10T1036 -117Q1036 -187 1001 -241T902 -333T752 -390T559 -410ZM537 410Q608 410 666 431T765 492T829 587T852 709Q852 778 831 834T769 930T669 992T535 1014Q463 1014 405 992T305 929T241 833T219 709Q219 642 242 587T306 493T406 432T537 410ZM563 -328Q651 -328 721 -313T840 -271T914 -207T940 -125Q940 -40 868 6T637 66L414 84L360 90Q255 58 203 -1T150 -131Q150 -176 173 -212T247 -274T376 -314T563 -328Z"/><glyph unicode="h" horiz-adv-x="1174" d="M172 1516H270V897Q315 939 363 976T463 1040T571 1082T686 1098Q770 1098 831 1076T932 1012T992 912T1012 780V0H913V768Q913 891 857 951T678 1012Q622 1012 570 998T468 958T369 893T270 807V0H172V1516Z"/><glyph unicode="i" horiz-adv-x="467" d="M184 1075H283V0H184V1075ZM180 1475H287V1350H180V1475Z"/><glyph unicode="j" horiz-adv-x="467" d="M86 -410Q77 -410 58 -409T29 -406V-317Q51 -324 86 -324Q129 -324 156 -297T184 -211V1075H283V-199Q283 -308 234 -359T86 -410ZM180 1475H287V1350H180V1475Z"/><glyph unicode="k" horiz-adv-x="1059" d="M172 1516H270V469L825 1075H948L596 700L995 0H885L526 625L270 350V0H172V1516Z"/><glyph unicode="l" horiz-adv-x="467" d="M184 1516H283V0H184V1516Z"/><glyph unicode="m" horiz-adv-x="1862" d="M172 1075H270V897Q315 939 361 976T457 1040T561 1082T674 1098Q742 1098 793 1083T880 1041T938 977T973 895Q1019 937 1068 974T1168 1038T1275 1082T1389 1098Q1472 1098 1531 1076T1627 1012T1682 912T1700 780V0H1602V768Q1602 891 1552 951T1378 1012Q1325 1012 1276 998T1178 958T1083 893T985 807V0H887V768Q887 829 876 875T838 951T769 997T664 1012Q611 1012 562 998T465 958T368 893T270 807V0H172V1075Z"/><glyph unicode="n" horiz-adv-x="1174" d="M172 1075H270V897Q315 939 363 976T463 1040T571 1082T686 1098Q770 1098 831 1076T932 1012T992 912T1012 780V0H913V768Q913 891 857 951T678 1012Q622 1012 570 998T468 958T369 893T270 807V0H172V1075Z"/><glyph unicode="o" horiz-adv-x="1167" d="M584 -23Q485 -23 399 16T248 129T148 305T111 537Q111 667 147 770T247 947T397 1059T584 1098Q683 1098 769 1059T919 947T1020 771T1057 537Q1057 409 1020 306T920 129T770 17T584 -23ZM584 63Q671 63 740 99T857 198T932 349T958 539Q958 632 934 718T862 869T745 973T584 1012Q497 1012 428 976T310 876T235 726T209 539Q209 444 233 358T304 207T421 102T584 63Z"/><glyph unicode="p" horiz-adv-x="1200" d="M172 1075H270V918Q304 954 343 986T427 1044T524 1083T637 1098Q730 1098 812 1064T955 960T1051 785T1087 539Q1087 398 1051 293T954 119T810 16T633 -18Q577 -18 528 -5T435 32T350 88T270 158V-410H172V1075ZM639 68Q709 68 772 95T884 179T960 324T989 537Q989 659 960 748T883 896T770 983T635 1012Q580 1012 534 999T444 962T358 901T270 819V260Q315 214 359 178T448 118T540 81T639 68Z"/><glyph unicode="q" horiz-adv-x="1200" d="M930 162Q895 126 857 94T773 36T676 -3T563 -18Q470 -18 388 15T245 118T149 291T113 537Q113 678 149 783T246 958T390 1063T567 1098Q622 1098 671 1085T765 1048T850 992T930 922V1075H1028V-410H930V162ZM565 68Q620 68 666 80T756 117T842 178T930 260V819Q885 865 841 901T752 961T660 999T561 1012Q490 1012 427 985T315 899T239 752T211 539Q211 417 240 328T317 181T430 96T565 68Z"/><glyph unicode="r" horiz-adv-x="795" d="M172 1075H270V850H274Q308 903 351 948T449 1027T569 1079T717 1098H745L729 1006H694Q557 1006 447 929T270 709V0H172V1075Z"/><glyph unicode="s" horiz-adv-x="1024" d="M502 -18Q430 -18 369 -3T258 39T167 102T98 180L170 236Q201 197 235 166T309 113T398 80T504 68Q657 68 734 125T811 281Q811 330 795 366T742 430T644 480T492 524Q390 549 321 577T209 640T148 721T129 829Q129 881 152 929T219 1015T330 1075T483 1098Q548 1098 603 1087T705 1054T791 1004T864 940L799 872Q768 905 735 931T664 975T580 1002T481 1012Q414 1012 366 997T287 957T242 900T227 834Q227 792 240 761T284 705T368 660T500 621Q614 592 692 563T818 495T887 405T909 281Q909 212 880 157T796 62T667 3T502 -18Z"/><glyph unicode="t" horiz-adv-x="717" d="M506 -14Q439 -14 390 0T307 44T258 123T242 240V987H53V1075H242V1466H340V1075H621V987H340V254Q340 211 348 178T376 121T429 86T514 74Q545 74 574 77T627 88V-4Q601 -9 571 -11T506 -14Z"/><glyph unicode="u" horiz-adv-x="1174" d="M487 -23Q403 -23 342 -1T241 63T182 163T162 295V1075H260V307Q260 183 316 123T496 63Q552 63 604 77T705 117T804 182T903 268V1075H1001V0H903V178Q858 136 810 100T710 36T602 -7T487 -23Z"/><glyph unicode="v" horiz-adv-x="1028" d="M66 1075H174L514 123H518L856 1075H963L563 -6H465L66 1075Z"/><glyph unicode="w" horiz-adv-x="1518" d="M68 1075H172L338 510Q353 456 366 411T392 321T417 232T444 135H449Q464 193 476 239T499 327T523 412T551 508L711 1075H811L973 496Q988 445 999 402T1022 318T1045 232T1071 135H1075Q1090 190 1102 233T1126 317T1150 399T1178 492L1350 1075H1450L1116 0H1024L762 938H758L492 0H401L68 1075Z"/><glyph unicode="x" horiz-adv-x="1030" d="M463 557L100 1075H213L516 633L821 1075H932L567 559L958 0H846L514 481L182 0H72L463 557Z"/><glyph unicode="y" horiz-adv-x="1063" d="M178 -410Q130 -410 96 -405T31 -391L55 -309Q78 -315 110 -319T190 -324Q238 -324 275 -313T341 -279T392 -222T432 -139L483 -6L66 1075H174L530 119H535L891 1075H997L532 -127Q505 -199 475 -252T405 -340T310 -393T178 -410Z"/><glyph unicode="z" horiz-adv-x="1024" d="M90 68L776 989H145V1075H903V1008L215 86H928V0H90V68Z"/><glyph unicode="{" horiz-adv-x="750" d="M492 -410T443 -393T363 -341T317 -255T303 -137V268Q303 343 289 391T247 466T176 504T76 514V592Q133 592 176 602T247 639T289 715T303 838V1243Q303 1310 317 1361T362 1446T443 1498T563 1516H653V1434H563Q480 1434 442 1395T403 1278V840Q403 765 392 716T358 636T303 587T229 555V551Q271 537 303 519T357 470T391 390T403 266V-172Q403 -250 441 -289T563 -328H653V-410H563Q492 -410 443 -393Z"/><glyph unicode="|" horiz-adv-x="680" d="M293 1516H387V-410H293V1516Z"/><glyph unicode="}" horiz-adv-x="750" d="M96 -328H186Q270 -328 308 -289T346 -172V266Q346 341 357 390T391 470T446 519T520 551V555Q479 569 447 587T392 636T358 716T346 840V1278Q346 1356 312 1399T195 1442H104L96 1516H186Q257 1516 306 1499T387 1447T432 1361T446 1243V838Q446 763 460 715T502 640T573 602T674 592V514Q616 514 574 504T503 467T460 391T446 268V-137Q446 -204 432 -255T387 -340T307 -392T186 -410H96V-328Z"/><glyph unicode="~" horiz-adv-x="1298" d="M934 555Q905 557 857 568T750 596T631 630T514 665T415 693T348 707Q299 712 267 691T227 610L154 616Q158 668 175 704T219 764T282 796T362 803Q391 800 439 789T546 761T665 726T782 691T881 663T948 649Q999 646 1031 667T1069 748L1145 741Q1140 690 1123 653T1078 593T1014 561T934 555Z"/><glyph unicode=" " horiz-adv-x="442"/><glyph unicode="¡" horiz-adv-x="621" d="M287 1118H334L371 0H250L287 1118ZM242 1516H379V1352H242V1516Z"/><glyph unicode="¢" horiz-adv-x="1077" d="M354 35Q300 67 255 116T178 229T129 370T111 537Q111 678 149 783T252 958T401 1063T575 1098Q592 1098 607 1097T639 1094L696 1307H778L715 1075Q763 1059 802 1032T874 971T931 896T975 811L891 766Q856 851 808 909T688 993L444 88Q505 63 567 63Q628 63 676 78T764 125T835 203T899 311L977 272Q943 202 903 148T812 55T700 -3T561 -23Q526 -23 492 -17T426 0L354 -264H272L354 35ZM621 1010Q608 1012 596 1012T571 1012Q509 1012 445 988T329 907T243 761T209 539Q209 391 256 286T381 123L621 1010Z"/><glyph unicode="£" horiz-adv-x="1210" d="M176 762V852H381Q361 889 343 927T310 1004T288 1084T279 1169Q279 1252 304 1321T377 1439T494 1516T653 1544Q751 1544 821 1512T937 1427T1005 1307T1032 1169L932 1163Q928 1225 911 1278T859 1371T773 1432T647 1454Q519 1454 449 1379T379 1171Q379 1129 388 1089T413 1010T448 932T489 852H840V762H537Q568 694 590 619T612 453Q612 387 605 330T584 223Q616 193 648 164T715 112T786 75T862 61Q957 61 1002 134T1059 360H1153Q1148 276 1130 205T1077 81T989 0T860 -29Q814 -29 773 -15T693 24T620 78T551 141Q506 56 438 14T281 -29Q243 -29 206 -17T139 21T91 82T72 166Q72 213 86 253T129 323T199 370T293 387Q353 387 404 360T504 295Q516 359 516 446Q516 538 490 615T428 762H176ZM479 205Q433 247 387 275T289 303Q230 303 196 267T162 170Q162 142 171 121T197 85T236 63T283 55Q352 55 401 91T479 205Z"/><glyph unicode="¤" horiz-adv-x="1152" d="M1056 392L940 284L740 500Q668 452 572 452Q480 452 408 500L208 284L92 392L300 608Q272 648 262 686T252 780Q252 828 262 870T300 952L92 1168L208 1276L408 1060Q480 1108 572 1108Q668 1108 740 1060L944 1276L1060 1156L852 952Q880 912 890 872T900 780Q900 684 848 608L1056 392ZM748 780Q748 860 698 910T572 960Q496 960 448 910T400 780Q400 700 450 652T572 604Q652 604 700 652T748 780Z"/><glyph unicode="¥" horiz-adv-x="1231" d="M563 281H166V375H563V590H166V682H559L59 1516H174L618 762L1061 1516H1171L670 682H1067V590H666V375H1067V281H666V0H563V281Z"/><glyph unicode="¦" horiz-adv-x="680" d="M293 1516H387V678H293V1516ZM293 428H387V-410H293V428Z"/><glyph unicode="§" horiz-adv-x="1061" d="M532 -410Q445 -410 380 -387T268 -324T192 -229T150 -109L244 -88Q258 -142 280 -185T337 -258T418 -303T530 -319Q596 -319 642 -302T717 -257T759 -193T772 -119Q772 -82 763 -49T726 18T650 89T520 174Q403 243 325 295T199 394T133 490T113 600Q113 664 138 716T204 811T293 886T389 940Q326 983 285 1020T221 1094T188 1167T178 1249Q178 1304 201 1357T270 1452T380 1518T528 1544Q620 1544 687 1521T802 1458T877 1363T920 1243L825 1223Q811 1277 789 1320T732 1393T648 1438T530 1454Q464 1454 417 1437T340 1392T295 1327T281 1253Q281 1216 291 1184T331 1117T410 1045T541 961Q658 892 736 840T862 740T928 644T948 535Q948 471 924 418T860 323T771 248T674 193Q737 150 776 113T837 40T866 -33T874 -115Q874 -170 852 -223T787 -317T679 -384T532 -410ZM590 246Q714 298 781 369T848 532Q848 576 833 611T777 685T666 769T485 881L471 889Q412 863 364 832T283 765T231 688T213 602Q213 558 228 523T284 449T395 365T575 254Q579 252 583 250T590 246Z"/><glyph unicode="¨" horiz-adv-x="1024" d="M274 1329H406V1192H274V1329ZM618 1329H750V1192H618V1329Z"/><glyph unicode="©" horiz-adv-x="1765" d="M883 -29Q775 -29 675 -1T488 78T330 202T208 361T130 549T102 758Q102 867 129 967T208 1154T330 1313T487 1436T674 1516T883 1544Q991 1544 1091 1516T1278 1437T1436 1314T1557 1155T1635 967T1663 758Q1663 650 1636 550T1558 362T1436 202T1278 79T1091 -1T883 -29ZM883 41Q981 41 1071 67T1240 139T1383 252T1493 397T1564 568T1589 758Q1589 856 1564 947T1494 1118T1384 1264T1241 1376T1072 1449T883 1475Q785 1475 694 1449T525 1377T382 1264T272 1119T201 948T176 758Q176 660 201 569T271 398T381 252T524 140T693 67T883 41ZM879 319Q798 319 732 352T620 446T549 589T524 774Q524 868 549 950T620 1092T732 1186T879 1221Q1006 1221 1082 1149T1194 946L1120 928Q1088 1038 1033 1093T879 1149Q817 1149 766 1122T679 1046T622 928T602 776Q602 686 621 615T677 494T765 418T881 391Q978 391 1040 449T1133 623Q1150 618 1165 614Q1178 610 1189 608T1206 604Q1171 467 1088 393T879 319Z"/><glyph unicode="ª" horiz-adv-x="836" d="M332 760Q223 760 167 811T111 950Q111 1004 136 1051T221 1138T380 1211T629 1270V1309Q629 1389 588 1429T473 1470Q381 1470 315 1439T188 1348L129 1397Q166 1432 204 1459T284 1505T373 1534T475 1544Q596 1544 654 1482T713 1313V967Q713 901 718 856T741 776H647Q639 801 635 825T629 877Q561 823 487 792T332 760ZM338 836Q419 836 492 871T629 965V1202Q497 1180 413 1153T281 1095T215 1028T197 954Q197 896 234 866T338 836Z"/><glyph unicode="«" horiz-adv-x="1016" d="M477 539L774 1075H883L590 539L883 0H774L477 539ZM102 539L397 1075H506L215 539L506 0H397L102 539Z"/><glyph unicode="¬" horiz-adv-x="1536" d="M1116 352V728H212V920H1296V352H1116Z"/><glyph unicode="­" horiz-adv-x="731" d="M143 692H588V594H143V692Z"/><glyph unicode="®" horiz-adv-x="1128" d="M565 594Q466 594 380 631T229 734T127 886T90 1073Q90 1172 127 1259T228 1410T379 1512T565 1550Q664 1550 750 1513T900 1411T1001 1259T1038 1073Q1038 973 1001 886T901 734T751 632T565 594ZM565 649Q652 649 728 682T861 773T950 908T983 1073Q983 1160 951 1237T861 1372T728 1463T565 1497Q478 1497 402 1464T270 1372T180 1237T147 1073Q147 986 180 909T269 774T402 683T565 649ZM393 1348H571Q661 1348 708 1310T756 1204Q756 1139 724 1106T637 1061L772 815H705L573 1053H453V815H393V1348ZM569 1108Q628 1108 662 1128T696 1202Q696 1252 662 1271T567 1290H453V1108H569Z"/><glyph unicode="¯" horiz-adv-x="1024" d="M274 1286H750V1192H274V1286Z"/><glyph unicode="°" horiz-adv-x="819" d="M410 991Q350 991 299 1012T210 1069T151 1157T129 1268Q129 1328 150 1378T209 1465T298 1523T410 1544Q470 1544 521 1523T609 1466T668 1379T690 1268Q690 1208 669 1157T610 1070T521 1012T410 991ZM410 1069Q451 1069 486 1083T547 1124T587 1187T602 1268Q602 1311 588 1347T548 1410T487 1451T410 1466Q368 1466 333 1452T272 1411T232 1348T217 1268Q217 1224 231 1188T272 1125T333 1084T410 1069Z"/><glyph unicode="±" horiz-adv-x="1298" d="M133 209H602V680H133V770H602V1241H696V770H1165V680H696V209H1165V119H133V209Z"/><glyph unicode="²" horiz-adv-x="899" d="M143 614Q143 665 158 714T210 813T308 916T463 1030Q511 1061 545 1089T601 1145T634 1205T645 1272Q645 1350 599 1400T461 1450Q384 1450 333 1410T238 1280L158 1319Q209 1430 286 1483T463 1536Q527 1536 577 1517T663 1463T718 1380T737 1274Q737 1224 724 1183T681 1103T604 1026T487 944Q370 870 310 800T242 668H741V578H143V614Z"/><glyph unicode="³" horiz-adv-x="899" d="M446 559Q344 559 262 609T123 756L197 805Q249 717 311 682T449 647Q499 647 538 660T605 699T647 758T662 834Q662 884 647 922T598 986T508 1025T371 1038H324V1116H379Q517 1116 580 1159T643 1290Q643 1324 633 1353T599 1403T540 1437T453 1450Q383 1450 331 1417T236 1327L164 1374Q219 1448 289 1492T455 1536Q531 1536 584 1515T672 1460T721 1382T737 1294Q737 1216 697 1160T575 1077Q671 1048 713 989T756 836Q756 779 735 729T673 641T576 581T446 559Z"/><glyph unicode="´" horiz-adv-x="1024" d="M551 1501H705L420 1192H356L551 1501Z"/><glyph unicode="µ" horiz-adv-x="1184" d="M172 1075H270V307Q270 183 326 123T506 63Q562 63 614 77T715 117T814 182T913 268V1075H1012V0H913V178Q869 136 821 100T720 36T613 -7T498 -23Q423 -23 366 -4T270 66V-410H172V1075Z"/><glyph unicode="¶" horiz-adv-x="1260" d="M633 702Q391 707 263 807T135 1106Q135 1194 165 1269T255 1399T402 1485T604 1516H1051V-410H952V1423H731V-410H633V702Z"/><glyph unicode="·" horiz-adv-x="543" d="M203 725H340V561H203V725Z"/><glyph unicode="¸" horiz-adv-x="1024" d="M508 -395Q445 -395 383 -376T266 -322L299 -270Q391 -332 496 -332Q583 -332 621 -305T659 -227Q659 -192 638 -172T569 -152Q534 -152 506 -165T457 -195L406 -170L457 0H532L498 -115Q519 -101 544 -93T604 -84Q632 -84 658 -93T704 -119T736 -161T748 -221Q748 -269 729 -302T677 -355T601 -385T508 -395Z"/><glyph unicode="¹" horiz-adv-x="698" d="M168 664H342V1403Q307 1387 262 1379T172 1370V1456Q234 1458 279 1471T354 1516H434V664H592V578H168V664Z"/><glyph unicode="º" horiz-adv-x="862" d="M430 760Q359 760 298 787T191 864T119 987T92 1151Q92 1243 118 1316T189 1439T297 1517T430 1544Q502 1544 564 1517T671 1440T743 1316T770 1151Q770 1060 744 988T672 865T564 787T430 760ZM430 836Q490 836 537 860T618 927T668 1027T686 1153Q686 1215 670 1272T621 1374T541 1444T430 1470Q371 1470 324 1446T244 1378T194 1278T176 1153Q176 1090 192 1033T240 932T319 862T430 836Z"/><glyph unicode="»" horiz-adv-x="1016" d="M426 539L133 1075H242L539 539L242 0H133L426 539ZM801 539L510 1075H618L913 539L618 0H510L801 539Z"/><glyph unicode="¼" horiz-adv-x="1858" d="M209 664H383V1403Q348 1387 303 1379T213 1370V1456Q275 1458 320 1471T395 1516H475V664H633V578H209V664ZM1475 233H1038V297L1460 942H1567V322H1720V233H1567V0H1475V233ZM1360 1516H1458L551 0H453L1360 1516ZM1475 322V805L1157 322H1475Z"/><glyph unicode="½" horiz-adv-x="1939" d="M1180 37Q1180 88 1195 136T1246 235T1344 339T1499 453Q1547 484 1581 512T1637 568T1670 627T1681 694Q1681 773 1635 822T1497 872Q1420 872 1369 832T1274 702L1194 741Q1245 853 1322 905T1499 958Q1563 958 1614 939T1700 885T1755 802T1774 696Q1774 646 1761 605T1717 525T1640 448T1524 367Q1406 292 1346 222T1278 90H1778V0H1180V37ZM1360 1516H1458L551 0H453L1360 1516ZM209 664H383V1403Q348 1387 303 1379T213 1370V1456Q275 1458 320 1471T395 1516H475V664H633V578H209V664Z"/><glyph unicode="¾" horiz-adv-x="1907" d="M446 559Q344 559 262 609T123 756L197 805Q249 717 311 682T449 647Q499 647 538 660T605 699T647 758T662 834Q662 884 647 922T598 986T508 1025T371 1038H324V1116H379Q517 1116 580 1159T643 1290Q643 1324 633 1353T599 1403T540 1437T453 1450Q383 1450 331 1417T236 1327L164 1374Q219 1448 289 1492T455 1536Q531 1536 584 1515T672 1460T721 1382T737 1294Q737 1216 697 1160T575 1077Q671 1048 713 989T756 836Q756 779 735 729T673 641T576 581T446 559ZM1524 233H1087V297L1509 942H1616V322H1769V233H1616V0H1524V233ZM1411 1516H1509L602 0H504L1411 1516ZM1524 322V805L1206 322H1524Z"/><glyph unicode="¿" horiz-adv-x="1077" d="M541 -29Q446 -29 367 -2T231 73T143 189T111 338Q111 414 131 471T188 573T272 653T377 723Q440 761 476 795T531 873T554 974T559 1118H639Q641 1090 642 1055T643 985Q643 933 635 891T607 811T552 742T467 678Q401 637 353 603T274 532T228 449T213 342Q213 277 235 226T301 138T405 83T543 63Q612 63 666 78T763 123T843 192T915 283L993 229Q952 173 908 126T809 45T689 -9T541 -29ZM530 1516H668V1352H530V1516Z"/><glyph unicode="À" horiz-adv-x="1358" d="M618 1522H739L1276 0H1167L991 508H362L186 0H82L618 1522ZM958 600L678 1407H674L395 600H958ZM360 1921H514L709 1612H645L360 1921Z"/><glyph unicode="Á" horiz-adv-x="1358" d="M618 1522H739L1276 0H1167L991 508H362L186 0H82L618 1522ZM958 600L678 1407H674L395 600H958ZM846 1921H1000L715 1612H651L846 1921Z"/><glyph unicode="Â" horiz-adv-x="1358" d="M618 1522H739L1276 0H1167L991 508H362L186 0H82L618 1522ZM958 600L678 1407H674L395 600H958ZM637 1921H719L983 1602H916L676 1815L436 1602H373L637 1921Z"/><glyph unicode="Ã" horiz-adv-x="1358" d="M618 1522H739L1276 0H1167L991 508H362L186 0H82L618 1522ZM958 600L678 1407H674L395 600H958ZM830 1608Q790 1608 749 1626T669 1665T593 1705T526 1723Q480 1723 461 1698T442 1612H373Q373 1815 530 1815Q570 1815 611 1797T691 1758T767 1718T834 1700Q880 1700 899 1725T918 1811H987Q987 1707 948 1658T830 1608Z"/><glyph unicode="Ä" horiz-adv-x="1358" d="M618 1522H739L1276 0H1167L991 508H362L186 0H82L618 1522ZM958 600L678 1407H674L395 600H958ZM440 1749H572V1612H440V1749ZM784 1749H916V1612H784V1749Z"/><glyph unicode="Å" horiz-adv-x="1358" d="M604 1481Q556 1501 528 1544T500 1645Q500 1682 513 1714T550 1770T606 1807T678 1821Q716 1821 748 1808T805 1771T842 1715T856 1645Q856 1588 828 1546T754 1483L1276 0H1167L991 508H362L186 0H82L604 1481ZM958 600L678 1407H674L395 600H958ZM678 1526Q727 1526 759 1559T791 1645Q791 1696 759 1728T678 1761Q628 1761 597 1729T565 1645Q565 1592 596 1559T678 1526Z"/><glyph unicode="Æ" horiz-adv-x="2003" d="M924 1516H1860V1421H1085V852H1667V758H1085V94H1905V0H983V508H455L166 0H61L924 1516ZM983 600V1436H981L508 600H983Z"/><glyph unicode="Ç" horiz-adv-x="1417" d="M743 -395Q680 -395 618 -376T502 -322L535 -270Q627 -332 731 -332Q819 -332 857 -305T895 -227Q895 -192 873 -172T805 -152Q770 -152 742 -165T692 -195L641 -170L684 -27Q556 -14 453 49T278 217T168 460T129 766Q129 930 172 1072T296 1319T490 1484T745 1544Q854 1544 941 1512T1094 1421T1207 1276T1280 1085L1182 1063Q1155 1159 1118 1232T1028 1353T905 1427T743 1452Q628 1452 534 1403T372 1263T268 1048T231 770Q231 603 268 472T373 250T536 111T748 63Q927 63 1041 167T1208 471L1305 449Q1278 339 1229 252T1110 103T952 7T760 -29L733 -115Q755 -101 780 -93T840 -84Q868 -84 894 -93T939 -119T971 -161T983 -221Q983 -269 964 -302T912 -355T836 -385T743 -395Z"/><glyph unicode="È" horiz-adv-x="1223" d="M203 1516H1079V1421H305V852H887V758H305V94H1124V0H203V1516ZM364 1921H518L713 1612H649L364 1921Z"/><glyph unicode="É" horiz-adv-x="1223" d="M203 1516H1079V1421H305V852H887V758H305V94H1124V0H203V1516ZM770 1921H924L639 1612H575L770 1921Z"/><glyph unicode="Ê" horiz-adv-x="1223" d="M203 1516H1079V1421H305V852H887V758H305V94H1124V0H203V1516ZM598 1921H680L944 1602H877L637 1815L397 1602H334L598 1921Z"/><glyph unicode="Ë" horiz-adv-x="1223" d="M203 1516H1079V1421H305V852H887V758H305V94H1124V0H203V1516ZM413 1749H545V1612H413V1749ZM757 1749H889V1612H757V1749Z"/><glyph unicode="Ì" horiz-adv-x="553" d="M225 1516H328V0H225V1516ZM-24 1921H130L325 1612H261L-24 1921Z"/><glyph unicode="Í" horiz-adv-x="553" d="M225 1516H328V0H225V1516ZM450 1921H604L319 1612H255L450 1921Z"/><glyph unicode="Î" horiz-adv-x="553" d="M225 1516H328V0H225V1516ZM236 1921H318L582 1602H515L275 1815L35 1602H-28L236 1921Z"/><glyph unicode="Ï" horiz-adv-x="553" d="M225 1516H328V0H225V1516ZM39 1749H171V1612H39V1749ZM383 1749H515V1612H383V1749Z"/><glyph unicode="Ð" horiz-adv-x="1438" d="M203 758H25V852H203V1516H567Q754 1516 893 1466T1125 1320T1263 1082T1309 758Q1309 576 1263 435T1123 198T891 51T567 0H203V758ZM590 94Q735 94 849 133T1043 253T1164 460T1206 758Q1206 927 1164 1052T1042 1259T847 1381T586 1421H305V852H637V758H305V94H590Z"/><glyph unicode="Ñ" horiz-adv-x="1505" d="M203 1516H319L1200 201H1204V1516H1303V0H1214L305 1360H301V0H203V1516ZM924 1608Q884 1608 843 1626T763 1665T687 1705T620 1723Q574 1723 555 1698T536 1612H467Q467 1815 624 1815Q664 1815 705 1797T785 1758T861 1718T928 1700Q974 1700 993 1725T1012 1811H1081Q1081 1707 1042 1658T924 1608Z"/><glyph unicode="Ò" horiz-adv-x="1501" d="M752 -29Q614 -29 500 29T303 191T175 439T129 758Q129 932 174 1076T302 1325T499 1486T752 1544Q888 1544 1002 1487T1198 1325T1326 1077T1372 758Q1372 584 1327 440T1199 191T1002 29T752 -29ZM752 63Q863 63 958 110T1122 247T1231 466T1270 758Q1270 921 1231 1049T1123 1267T958 1404T752 1452Q640 1452 545 1405T380 1268T271 1050T231 758Q231 595 270 466T379 248T544 111T752 63ZM444 1921H598L793 1612H729L444 1921Z"/><glyph unicode="Ó" horiz-adv-x="1501" d="M752 -29Q614 -29 500 29T303 191T175 439T129 758Q129 932 174 1076T302 1325T499 1486T752 1544Q888 1544 1002 1487T1198 1325T1326 1077T1372 758Q1372 584 1327 440T1199 191T1002 29T752 -29ZM752 63Q863 63 958 110T1122 247T1231 466T1270 758Q1270 921 1231 1049T1123 1267T958 1404T752 1452Q640 1452 545 1405T380 1268T271 1050T231 758Q231 595 270 466T379 248T544 111T752 63ZM893 1921H1047L762 1612H698L893 1921Z"/><glyph unicode="Ô" horiz-adv-x="1501" d="M752 -29Q614 -29 500 29T303 191T175 439T129 758Q129 932 174 1076T302 1325T499 1486T752 1544Q888 1544 1002 1487T1198 1325T1326 1077T1372 758Q1372 584 1327 440T1199 191T1002 29T752 -29ZM752 63Q863 63 958 110T1122 247T1231 466T1270 758Q1270 921 1231 1049T1123 1267T958 1404T752 1452Q640 1452 545 1405T380 1268T271 1050T231 758Q231 595 270 466T379 248T544 111T752 63ZM709 1921H791L1055 1602H988L748 1815L508 1602H445L709 1921Z"/><glyph unicode="Õ" horiz-adv-x="1501" d="M752 -29Q614 -29 500 29T303 191T175 439T129 758Q129 932 174 1076T302 1325T499 1486T752 1544Q888 1544 1002 1487T1198 1325T1326 1077T1372 758Q1372 584 1327 440T1199 191T1002 29T752 -29ZM752 63Q863 63 958 110T1122 247T1231 466T1270 758Q1270 921 1231 1049T1123 1267T958 1404T752 1452Q640 1452 545 1405T380 1268T271 1050T231 758Q231 595 270 466T379 248T544 111T752 63ZM898 1608Q858 1608 817 1626T737 1665T661 1705T594 1723Q548 1723 529 1698T510 1612H441Q441 1815 598 1815Q638 1815 679 1797T759 1758T835 1718T902 1700Q948 1700 967 1725T986 1811H1055Q1055 1707 1016 1658T898 1608Z"/><glyph unicode="Ö" horiz-adv-x="1501" d="M752 -29Q614 -29 500 29T303 191T175 439T129 758Q129 932 174 1076T302 1325T499 1486T752 1544Q888 1544 1002 1487T1198 1325T1326 1077T1372 758Q1372 584 1327 440T1199 191T1002 29T752 -29ZM752 63Q863 63 958 110T1122 247T1231 466T1270 758Q1270 921 1231 1049T1123 1267T958 1404T752 1452Q640 1452 545 1405T380 1268T271 1050T231 758Q231 595 270 466T379 248T544 111T752 63ZM512 1749H644V1612H512V1749ZM856 1749H988V1612H856V1749Z"/><glyph unicode="×" horiz-adv-x="1298" d="M229 287L588 645L229 1006L289 1065L647 705L1008 1065L1067 1006L707 645L1067 287L1008 227L647 588L289 227L229 287Z"/><glyph unicode="Ø" horiz-adv-x="1501" d="M1212 1307Q1290 1203 1331 1064T1372 758Q1372 584 1327 440T1199 191T1002 29T752 -29Q630 -29 528 16T344 143L213 -31L143 14L289 209Q213 312 171 451T129 758Q129 932 174 1076T302 1325T499 1486T752 1544Q872 1544 974 1499T1157 1372L1288 1546L1358 1501L1212 1307ZM1102 1292Q1033 1371 944 1411T752 1452Q640 1452 545 1405T380 1268T271 1050T231 758Q231 611 263 493T352 287L1102 1292ZM399 225Q467 147 556 105T752 63Q863 63 958 110T1122 247T1231 466T1270 758Q1270 904 1239 1021T1151 1227L399 225Z"/><glyph unicode="Ù" horiz-adv-x="1460" d="M729 -29Q595 -29 495 13T328 127T227 294T193 496V1516H295V520Q295 425 320 342T399 196T535 99T731 63Q843 63 925 97T1060 192T1139 336T1165 516V1516H1268V502Q1268 395 1234 299T1133 130T964 14T729 -29ZM438 1921H592L787 1612H723L438 1921Z"/><glyph unicode="Ú" horiz-adv-x="1460" d="M729 -29Q595 -29 495 13T328 127T227 294T193 496V1516H295V520Q295 425 320 342T399 196T535 99T731 63Q843 63 925 97T1060 192T1139 336T1165 516V1516H1268V502Q1268 395 1234 299T1133 130T964 14T729 -29ZM854 1921H1008L723 1612H659L854 1921Z"/><glyph unicode="Û" horiz-adv-x="1460" d="M729 -29Q595 -29 495 13T328 127T227 294T193 496V1516H295V520Q295 425 320 342T399 196T535 99T731 63Q843 63 925 97T1060 192T1139 336T1165 516V1516H1268V502Q1268 395 1234 299T1133 130T964 14T729 -29ZM688 1921H770L1034 1602H967L727 1815L487 1602H424L688 1921Z"/><glyph unicode="Ü" horiz-adv-x="1460" d="M729 -29Q595 -29 495 13T328 127T227 294T193 496V1516H295V520Q295 425 320 342T399 196T535 99T731 63Q843 63 925 97T1060 192T1139 336T1165 516V1516H1268V502Q1268 395 1234 299T1133 130T964 14T729 -29ZM491 1749H623V1612H491V1749ZM835 1749H967V1612H835V1749Z"/><glyph unicode="Ý" horiz-adv-x="1231" d="M563 674L59 1516H174L618 762L1061 1516H1171L666 674V0H563V674ZM729 1921H883L598 1612H534L729 1921Z"/><glyph unicode="Þ" horiz-adv-x="1311" d="M203 1516H305V1214H696Q945 1212 1075 1111T1206 821Q1206 715 1170 638T1065 509T899 433T680 408H305V0H203V1516ZM688 502Q786 502 863 518T994 571T1076 668T1104 817Q1104 900 1076 957T995 1051T864 1103T686 1120H305V502H688Z"/><glyph unicode="ß" horiz-adv-x="1223" d="M725 -23Q625 -23 554 9T436 90L500 154Q523 131 546 114T597 86T657 69T731 63Q792 63 843 87T932 158T989 271T1010 422Q1010 523 978 595T884 714T730 784T518 813V895Q611 896 679 918T791 978T857 1064T879 1171Q879 1233 858 1281T797 1363T702 1413T578 1430Q429 1430 350 1339T270 1077V0H172V1069Q172 1174 199 1256T279 1397T407 1485T580 1516Q668 1516 741 1494T866 1428T948 1320T977 1174Q977 1118 960 1068T910 977T827 906T713 858Q795 846 867 817T992 736T1077 609T1108 428Q1108 327 1082 244T1005 102T884 10T725 -23Z"/><glyph unicode="à" horiz-adv-x="1106" d="M412 -18Q264 -18 187 53T109 248Q109 325 145 392T266 515T494 618T848 700V766Q848 890 787 951T614 1012Q547 1012 491 1000T384 964T288 907T197 834L139 895Q189 941 240 978T350 1042T473 1083T616 1098Q700 1098 762 1075T865 1010T926 907T946 772V266Q946 167 953 105T977 0H872Q861 34 855 73T848 160Q749 75 641 29T412 -18ZM420 68Q541 68 648 117T848 256V627Q717 604 619 578T449 523T331 463T257 398T218 328T207 254Q207 163 263 116T420 68ZM547 1501H701L896 1192H832L547 1501Z"/><glyph unicode="á" horiz-adv-x="1106" d="M412 -18Q264 -18 187 53T109 248Q109 325 145 392T266 515T494 618T848 700V766Q848 890 787 951T614 1012Q547 1012 491 1000T384 964T288 907T197 834L139 895Q189 941 240 978T350 1042T473 1083T616 1098Q700 1098 762 1075T865 1010T926 907T946 772V266Q946 167 953 105T977 0H872Q861 34 855 73T848 160Q749 75 641 29T412 -18ZM420 68Q541 68 648 117T848 256V627Q717 604 619 578T449 523T331 463T257 398T218 328T207 254Q207 163 263 116T420 68ZM711 1501H865L580 1192H516L711 1501Z"/><glyph unicode="â" horiz-adv-x="1106" d="M412 -18Q264 -18 187 53T109 248Q109 325 145 392T266 515T494 618T848 700V766Q848 890 787 951T614 1012Q547 1012 491 1000T384 964T288 907T197 834L139 895Q189 941 240 978T350 1042T473 1083T616 1098Q700 1098 762 1075T865 1010T926 907T946 772V266Q946 167 953 105T977 0H872Q861 34 855 73T848 160Q749 75 641 29T412 -18ZM420 68Q541 68 648 117T848 256V627Q717 604 619 578T449 523T331 463T257 398T218 328T207 254Q207 163 263 116T420 68ZM528 1501H610L874 1182H807L567 1395L327 1182H264L528 1501Z"/><glyph unicode="ã" horiz-adv-x="1106" d="M412 -18Q264 -18 187 53T109 248Q109 325 145 392T266 515T494 618T848 700V766Q848 890 787 951T614 1012Q547 1012 491 1000T384 964T288 907T197 834L139 895Q189 941 240 978T350 1042T473 1083T616 1098Q700 1098 762 1075T865 1010T926 907T946 772V266Q946 167 953 105T977 0H872Q861 34 855 73T848 160Q749 75 641 29T412 -18ZM420 68Q541 68 648 117T848 256V627Q717 604 619 578T449 523T331 463T257 398T218 328T207 254Q207 163 263 116T420 68ZM715 1188Q675 1188 634 1206T554 1245T478 1285T411 1303Q365 1303 346 1278T327 1192H258Q258 1395 415 1395Q455 1395 496 1377T576 1338T652 1298T719 1280Q765 1280 784 1305T803 1391H872Q872 1287 833 1238T715 1188Z"/><glyph unicode="ä" horiz-adv-x="1106" d="M412 -18Q264 -18 187 53T109 248Q109 325 145 392T266 515T494 618T848 700V766Q848 890 787 951T614 1012Q547 1012 491 1000T384 964T288 907T197 834L139 895Q189 941 240 978T350 1042T473 1083T616 1098Q700 1098 762 1075T865 1010T926 907T946 772V266Q946 167 953 105T977 0H872Q861 34 855 73T848 160Q749 75 641 29T412 -18ZM420 68Q541 68 648 117T848 256V627Q717 604 619 578T449 523T331 463T257 398T218 328T207 254Q207 163 263 116T420 68ZM346 1329H478V1192H346V1329ZM690 1329H822V1192H690V1329Z"/><glyph unicode="å" horiz-adv-x="1106" d="M412 -18Q264 -18 187 53T109 248Q109 325 145 392T266 515T494 618T848 700V766Q848 890 787 951T614 1012Q547 1012 491 1000T384 964T288 907T197 834L139 895Q189 941 240 978T350 1042T473 1083T616 1098Q700 1098 762 1075T865 1010T926 907T946 772V266Q946 167 953 105T977 0H872Q861 34 855 73T848 160Q749 75 641 29T412 -18ZM420 68Q541 68 648 117T848 256V627Q717 604 619 578T449 523T331 463T257 398T218 328T207 254Q207 163 263 116T420 68ZM588 1178Q550 1178 518 1191T461 1228T424 1284T410 1356Q410 1393 423 1425T461 1481T517 1518T588 1532Q626 1532 658 1519T715 1482T752 1426T766 1356Q766 1317 753 1285T715 1229T659 1192T588 1178ZM588 1237Q637 1237 669 1270T701 1356Q701 1381 693 1402T669 1439T633 1464T588 1473Q538 1473 507 1440T475 1356Q475 1303 506 1270T588 1237Z"/><glyph unicode="æ" horiz-adv-x="1829" d="M412 -23Q338 -23 282 -5T187 49T129 133T109 244Q109 321 144 389T264 514T490 619T844 702V766Q844 890 784 951T612 1012Q545 1012 489 1000T383 964T288 907T197 834L139 895Q189 941 240 978T349 1042T471 1083T614 1098Q686 1098 739 1080T830 1030T890 954T922 856Q948 907 985 951T1069 1028T1173 1079T1294 1098Q1389 1098 1467 1060T1601 950T1687 776T1718 547V532H938Q938 422 966 336T1042 188T1156 95T1296 63Q1359 63 1409 77T1500 120T1576 191T1640 287L1712 242Q1679 181 1639 132T1547 49T1432 -4T1290 -23Q1233 -23 1178 -8T1074 38T984 113T911 217Q858 164 801 120T681 44T551 -5T412 -23ZM420 63Q545 63 657 119T879 291Q860 345 850 406T840 539Q840 562 841 583T844 627Q713 604 615 578T446 522T329 461T256 395T218 324T207 250Q207 159 263 111T420 63ZM1616 614Q1611 697 1589 769T1526 896T1428 981T1292 1012Q1229 1012 1170 988T1063 914T983 789T940 614H1616Z"/><glyph unicode="ç" horiz-adv-x="1077" d="M557 -395Q494 -395 432 -376T315 -322L348 -270Q442 -332 545 -332Q633 -332 671 -305T709 -227Q709 -192 687 -172T618 -152Q583 -152 556 -165T506 -195L455 -170L500 -18Q419 -6 348 38T225 153T142 322T111 537Q111 678 149 783T252 958T401 1063T575 1098Q657 1098 720 1075T831 1013T914 921T975 811L891 766Q866 824 837 869T769 946T682 995T571 1012Q509 1012 445 988T329 907T243 761T209 539Q209 426 237 338T314 188T428 95T567 63Q628 63 676 78T764 125T835 203T899 311L977 272Q944 204 905 150T817 58T709 0T575 -23L547 -115Q568 -101 593 -93T653 -84Q681 -84 707 -93T753 -119T785 -161T797 -221Q797 -269 778 -302T726 -355T650 -385T557 -395Z"/><glyph unicode="è" horiz-adv-x="1104" d="M563 -23Q473 -23 391 15T247 125T148 301T111 539Q111 678 150 783T253 958T399 1063T567 1098Q662 1098 740 1060T875 950T962 776T993 547V532H209Q209 422 237 336T315 188T429 95T569 63Q632 63 682 77T774 120T850 191T915 287L987 242Q954 181 913 132T821 49T705 -4T563 -23ZM891 614Q886 697 864 769T801 896T702 981T565 1012Q502 1012 443 988T335 914T254 789T211 614H891ZM513 1501H667L862 1192H798L513 1501Z"/><glyph unicode="é" horiz-adv-x="1104" d="M563 -23Q473 -23 391 15T247 125T148 301T111 539Q111 678 150 783T253 958T399 1063T567 1098Q662 1098 740 1060T875 950T962 776T993 547V532H209Q209 422 237 336T315 188T429 95T569 63Q632 63 682 77T774 120T850 191T915 287L987 242Q954 181 913 132T821 49T705 -4T563 -23ZM891 614Q886 697 864 769T801 896T702 981T565 1012Q502 1012 443 988T335 914T254 789T211 614H891ZM715 1501H869L584 1192H520L715 1501Z"/><glyph unicode="ê" horiz-adv-x="1104" d="M563 -23Q473 -23 391 15T247 125T148 301T111 539Q111 678 150 783T253 958T399 1063T567 1098Q662 1098 740 1060T875 950T962 776T993 547V532H209Q209 422 237 336T315 188T429 95T569 63Q632 63 682 77T774 120T850 191T915 287L987 242Q954 181 913 132T821 49T705 -4T563 -23ZM891 614Q886 697 864 769T801 896T702 981T565 1012Q502 1012 443 988T335 914T254 789T211 614H891ZM528 1501H610L874 1182H807L567 1395L327 1182H264L528 1501Z"/><glyph unicode="ë" horiz-adv-x="1104" d="M563 -23Q473 -23 391 15T247 125T148 301T111 539Q111 678 150 783T253 958T399 1063T567 1098Q662 1098 740 1060T875 950T962 776T993 547V532H209Q209 422 237 336T315 188T429 95T569 63Q632 63 682 77T774 120T850 191T915 287L987 242Q954 181 913 132T821 49T705 -4T563 -23ZM891 614Q886 697 864 769T801 896T702 981T565 1012Q502 1012 443 988T335 914T254 789T211 614H891ZM323 1329H455V1192H323V1329ZM667 1329H799V1192H667V1329Z"/><glyph unicode="ì" horiz-adv-x="467" d="M184 1075H283V0H184V1075ZM-59 1501H95L290 1192H226L-59 1501Z"/><glyph unicode="í" horiz-adv-x="467" d="M184 1075H283V0H184V1075ZM413 1501H567L282 1192H218L413 1501Z"/><glyph unicode="î" horiz-adv-x="467" d="M184 1075H283V0H184V1075ZM193 1501H275L539 1182H472L232 1395L-8 1182H-71L193 1501Z"/><glyph unicode="ï" horiz-adv-x="467" d="M184 1075H283V0H184V1075ZM-4 1329H128V1192H-4V1329ZM340 1329H472V1192H340V1329Z"/><glyph unicode="ð" horiz-adv-x="1167" d="M584 -23Q485 -23 399 16T248 129T148 305T111 537Q111 667 147 767T247 937T397 1041T584 1077Q639 1077 690 1062T787 1019T869 955T934 874Q922 923 905 973T863 1072T805 1169T729 1262L489 1176L459 1257L659 1329Q624 1361 583 1389T494 1446L543 1520Q602 1488 656 1450T758 1366L973 1444L1004 1362L825 1296Q877 1236 920 1161T993 993T1040 787T1057 537Q1057 409 1020 306T920 129T770 17T584 -23ZM584 63Q671 63 740 99T857 198T932 349T958 539Q958 632 933 714T860 858T743 955T584 991Q497 991 428 958T310 866T235 723T209 539Q209 444 233 358T304 207T421 102T584 63Z"/><glyph unicode="ñ" horiz-adv-x="1174" d="M172 1075H270V897Q315 939 363 976T463 1040T571 1082T686 1098Q770 1098 831 1076T932 1012T992 912T1012 780V0H913V768Q913 891 857 951T678 1012Q622 1012 570 998T468 958T369 893T270 807V0H172V1075ZM754 1188Q714 1188 673 1206T593 1245T517 1285T450 1303Q404 1303 385 1278T366 1192H297Q297 1395 454 1395Q494 1395 535 1377T615 1338T691 1298T758 1280Q804 1280 823 1305T842 1391H911Q911 1287 872 1238T754 1188Z"/><glyph unicode="ò" horiz-adv-x="1167" d="M584 -23Q485 -23 399 16T248 129T148 305T111 537Q111 667 147 770T247 947T397 1059T584 1098Q683 1098 769 1059T919 947T1020 771T1057 537Q1057 409 1020 306T920 129T770 17T584 -23ZM584 63Q671 63 740 99T857 198T932 349T958 539Q958 632 934 718T862 869T745 973T584 1012Q497 1012 428 976T310 876T235 726T209 539Q209 444 233 358T304 207T421 102T584 63ZM533 1501H687L882 1192H818L533 1501Z"/><glyph unicode="ó" horiz-adv-x="1167" d="M584 -23Q485 -23 399 16T248 129T148 305T111 537Q111 667 147 770T247 947T397 1059T584 1098Q683 1098 769 1059T919 947T1020 771T1057 537Q1057 409 1020 306T920 129T770 17T584 -23ZM584 63Q671 63 740 99T857 198T932 349T958 539Q958 632 934 718T862 869T745 973T584 1012Q497 1012 428 976T310 876T235 726T209 539Q209 444 233 358T304 207T421 102T584 63ZM729 1501H883L598 1192H534L729 1501Z"/><glyph unicode="ô" horiz-adv-x="1167" d="M584 -23Q485 -23 399 16T248 129T148 305T111 537Q111 667 147 770T247 947T397 1059T584 1098Q683 1098 769 1059T919 947T1020 771T1057 537Q1057 409 1020 306T920 129T770 17T584 -23ZM584 63Q671 63 740 99T857 198T932 349T958 539Q958 632 934 718T862 869T745 973T584 1012Q497 1012 428 976T310 876T235 726T209 539Q209 444 233 358T304 207T421 102T584 63ZM543 1501H625L889 1182H822L582 1395L342 1182H279L543 1501Z"/><glyph unicode="õ" horiz-adv-x="1167" d="M584 -23Q485 -23 399 16T248 129T148 305T111 537Q111 667 147 770T247 947T397 1059T584 1098Q683 1098 769 1059T919 947T1020 771T1057 537Q1057 409 1020 306T920 129T770 17T584 -23ZM584 63Q671 63 740 99T857 198T932 349T958 539Q958 632 934 718T862 869T745 973T584 1012Q497 1012 428 976T310 876T235 726T209 539Q209 444 233 358T304 207T421 102T584 63ZM738 1188Q698 1188 657 1206T577 1245T501 1285T434 1303Q388 1303 369 1278T350 1192H281Q281 1395 438 1395Q478 1395 519 1377T599 1338T675 1298T742 1280Q788 1280 807 1305T826 1391H895Q895 1287 856 1238T738 1188Z"/><glyph unicode="ö" horiz-adv-x="1167" d="M584 -23Q485 -23 399 16T248 129T148 305T111 537Q111 667 147 770T247 947T397 1059T584 1098Q683 1098 769 1059T919 947T1020 771T1057 537Q1057 409 1020 306T920 129T770 17T584 -23ZM584 63Q671 63 740 99T857 198T932 349T958 539Q958 632 934 718T862 869T745 973T584 1012Q497 1012 428 976T310 876T235 726T209 539Q209 444 233 358T304 207T421 102T584 63ZM344 1329H476V1192H344V1329ZM688 1329H820V1192H688V1329Z"/><glyph unicode="÷" horiz-adv-x="1298" d="M133 709H1165V618H133V709ZM569 387H717V227H569V387ZM569 1098H717V938H569V1098Z"/><glyph unicode="ø" horiz-adv-x="1167" d="M920 946Q985 872 1021 770T1057 537Q1057 409 1020 306T920 129T770 17T584 -23Q505 -23 435 2T305 74L209 -63L143 -18L248 129Q183 203 147 306T111 537Q111 667 147 770T247 947T397 1059T584 1098Q662 1098 731 1074T860 1004L958 1143L1026 1096L920 946ZM354 150Q399 109 455 86T584 63Q671 63 740 99T857 198T932 349T958 539Q958 633 934 718T862 868L354 150ZM811 926Q766 968 710 990T584 1012Q497 1012 428 976T310 876T235 726T209 539Q209 443 233 357T305 205L811 926Z"/><glyph unicode="ù" horiz-adv-x="1174" d="M487 -23Q403 -23 342 -1T241 63T182 163T162 295V1075H260V307Q260 183 316 123T496 63Q552 63 604 77T705 117T804 182T903 268V1075H1001V0H903V178Q858 136 810 100T710 36T602 -7T487 -23ZM543 1501H697L892 1192H828L543 1501Z"/><glyph unicode="ú" horiz-adv-x="1174" d="M487 -23Q403 -23 342 -1T241 63T182 163T162 295V1075H260V307Q260 183 316 123T496 63Q552 63 604 77T705 117T804 182T903 268V1075H1001V0H903V178Q858 136 810 100T710 36T602 -7T487 -23ZM729 1501H883L598 1192H534L729 1501Z"/><glyph unicode="û" horiz-adv-x="1174" d="M487 -23Q403 -23 342 -1T241 63T182 163T162 295V1075H260V307Q260 183 316 123T496 63Q552 63 604 77T705 117T804 182T903 268V1075H1001V0H903V178Q858 136 810 100T710 36T602 -7T487 -23ZM541 1501H623L887 1182H820L580 1395L340 1182H277L541 1501Z"/><glyph unicode="ü" horiz-adv-x="1174" d="M487 -23Q403 -23 342 -1T241 63T182 163T162 295V1075H260V307Q260 183 316 123T496 63Q552 63 604 77T705 117T804 182T903 268V1075H1001V0H903V178Q858 136 810 100T710 36T602 -7T487 -23ZM348 1329H480V1192H348V1329ZM692 1329H824V1192H692V1329Z"/><glyph unicode="ý" horiz-adv-x="1063" d="M178 -410Q130 -410 96 -405T31 -391L55 -309Q78 -315 110 -319T190 -324Q238 -324 275 -313T341 -279T392 -222T432 -139L483 -6L66 1075H174L530 119H535L891 1075H997L532 -127Q505 -199 475 -252T405 -340T310 -393T178 -410ZM684 1501H838L553 1192H489L684 1501Z"/><glyph unicode="þ" horiz-adv-x="1200" d="M172 1516H270V918Q304 954 343 986T427 1044T524 1083T637 1098Q730 1098 812 1064T955 960T1051 785T1087 539Q1087 398 1051 293T954 119T810 16T633 -18Q577 -18 528 -5T435 32T350 88T270 158V-410H172V1516ZM639 68Q709 68 772 95T884 179T960 324T989 537Q989 659 960 748T883 896T770 983T635 1012Q580 1012 534 999T444 962T358 901T270 819V260Q315 214 359 178T448 118T540 81T639 68Z"/><glyph unicode="ÿ" horiz-adv-x="1063" d="M178 -410Q130 -410 96 -405T31 -391L55 -309Q78 -315 110 -319T190 -324Q238 -324 275 -313T341 -279T392 -222T432 -139L483 -6L66 1075H174L530 119H535L891 1075H997L532 -127Q505 -199 475 -252T405 -340T310 -393T178 -410ZM294 1329H426V1192H294V1329ZM638 1329H770V1192H638V1329Z"/><glyph unicode="ı" horiz-adv-x="467" d="M184 1075H283V0H184V1075Z"/><glyph unicode="Œ" horiz-adv-x="2286" d="M752 -29Q614 -29 500 29T303 191T175 439T129 758Q129 932 174 1076T302 1325T499 1486T752 1544Q846 1544 927 1518T1073 1445T1189 1333T1272 1188V1516H2142V1421H1368V852H1950V758H1368V94H2187V0H1272V332Q1239 253 1189 187T1074 72T927 -2T752 -29ZM752 63Q863 63 958 110T1122 247T1231 466T1270 758Q1270 921 1231 1049T1123 1267T958 1404T752 1452Q640 1452 545 1405T380 1268T271 1050T231 758Q231 595 270 466T379 248T544 111T752 63Z"/><glyph unicode="œ" horiz-adv-x="1933" d="M580 -23Q481 -23 395 16T246 129T147 305T111 537Q111 667 146 770T245 947T394 1059T580 1098Q656 1098 722 1075T841 1010T934 911T997 786Q1021 854 1060 911T1151 1009T1266 1074T1401 1098Q1496 1098 1574 1060T1707 950T1793 776T1823 547V532H1047Q1047 422 1074 336T1150 188T1263 95T1403 63Q1466 63 1516 77T1606 120T1680 191T1745 287L1817 242Q1784 181 1744 132T1652 49T1538 -4T1397 -23Q1328 -23 1266 0T1151 65T1059 164T995 289Q971 221 932 164T841 66T722 1T580 -23ZM580 63Q667 63 735 99T851 198T924 349T950 539Q950 632 927 718T857 869T741 973T580 1012Q493 1012 424 976T308 876T235 726T209 539Q209 444 232 358T302 207T418 102T580 63ZM1720 614Q1715 697 1693 769T1632 896T1535 981T1399 1012Q1336 1012 1277 988T1171 914T1091 789T1049 614H1720Z"/><glyph unicode="Š" horiz-adv-x="1309" d="M666 -29Q561 -29 473 -1T317 80T201 208T129 379L229 403Q274 234 389 149T670 63Q762 63 836 85T962 146T1043 242T1071 367Q1071 430 1055 479T992 572T864 654T651 735Q524 776 434 816T286 905T201 1018T174 1169Q174 1245 207 1313T301 1432T445 1514T629 1544Q733 1544 815 1518T960 1445T1064 1333T1130 1188L1032 1159Q1005 1239 967 1294T877 1385T764 1436T627 1452Q546 1452 481 1430T371 1370T301 1282T276 1176Q276 1107 297 1059T369 971T505 897T721 819Q843 779 929 737T1069 643T1149 526T1174 373Q1174 278 1134 204T1025 78T864 -1T666 -29ZM348 1951H415L655 1738L895 1951H958L694 1632H612L348 1951Z"/><glyph unicode="š" horiz-adv-x="1024" d="M502 -18Q430 -18 369 -3T258 39T167 102T98 180L170 236Q201 197 235 166T309 113T398 80T504 68Q657 68 734 125T811 281Q811 330 795 366T742 430T644 480T492 524Q390 549 321 577T209 640T148 721T129 829Q129 881 152 929T219 1015T330 1075T483 1098Q548 1098 603 1087T705 1054T791 1004T864 940L799 872Q768 905 735 931T664 975T580 1002T481 1012Q414 1012 366 997T287 957T242 900T227 834Q227 792 240 761T284 705T368 660T500 621Q614 592 692 563T818 495T887 405T909 281Q909 212 880 157T796 62T667 3T502 -18ZM207 1511H274L514 1298L754 1511H817L553 1192H471L207 1511Z"/><glyph unicode="Ÿ" horiz-adv-x="1231" d="M563 674L59 1516H174L618 762L1061 1516H1171L666 674V0H563V674ZM376 1749H508V1612H376V1749ZM720 1749H852V1612H720V1749Z"/><glyph unicode="Ž" horiz-adv-x="1260" d="M92 76L1028 1427H154V1516H1149V1440L213 88H1149V0H92V76ZM324 1951H391L631 1738L871 1951H934L670 1632H588L324 1951Z"/><glyph unicode="ž" horiz-adv-x="1024" d="M90 68L776 989H145V1075H903V1008L215 86H928V0H90V68ZM207 1511H274L514 1298L754 1511H817L553 1192H471L207 1511Z"/><glyph unicode="ƒ" horiz-adv-x="641" d="M-184 -319Q-173 -321 -155 -321T-121 -322Q-80 -322 -45 -313T18 -285T64 -235T88 -160L233 864H45L57 952H246L287 1257Q297 1327 323 1376T392 1457T491 1502T618 1516H672L657 1425Q646 1427 628 1427T594 1427Q553 1427 518 1418T455 1390T409 1340T385 1266L344 952H582L569 864H332L186 -152Q176 -222 150 -271T81 -351T-18 -396T-145 -410H-199L-184 -319Z"/><glyph unicode="ˆ" horiz-adv-x="1024" d="M471 1501H553L817 1182H750L510 1395L270 1182H207L471 1501Z"/><glyph unicode="ˇ" horiz-adv-x="1024" d="M207 1511H274L514 1298L754 1511H817L553 1192H471L207 1511Z"/><glyph unicode="˚" horiz-adv-x="1106" d="M553 1178Q515 1178 483 1191T426 1228T389 1284T375 1356Q375 1393 388 1425T426 1481T482 1518T553 1532Q591 1532 623 1519T680 1482T717 1426T731 1356Q731 1317 718 1285T680 1229T624 1192T553 1178ZM553 1237Q602 1237 634 1270T666 1356Q666 1381 658 1402T634 1439T598 1464T553 1473Q503 1473 472 1440T440 1356Q440 1303 471 1270T553 1237Z"/><glyph unicode="˜" horiz-adv-x="1024" d="M662 1188Q622 1188 581 1206T501 1245T425 1285T358 1303Q312 1303 293 1278T274 1192H205Q205 1395 362 1395Q402 1395 443 1377T523 1338T599 1298T666 1280Q712 1280 731 1305T750 1391H819Q819 1287 780 1238T662 1188Z"/><glyph unicode="̄" horiz-adv-x="1024" d="M274 1286H750V1192H274V1286Z"/><glyph unicode="μ" horiz-adv-x="1184" d="M172 1075H270V307Q270 183 326 123T506 63Q562 63 614 77T715 117T814 182T913 268V1075H1012V0H913V178Q869 136 821 100T720 36T613 -7T498 -23Q423 -23 366 -4T270 66V-410H172V1075Z"/><glyph unicode="–" horiz-adv-x="1311" d="M143 690H1167V596H143V690Z"/><glyph unicode="—" horiz-adv-x="1884" d="M143 690H1741V596H143V690Z"/><glyph unicode="‘" horiz-adv-x="543" d="M203 1305L283 1516H328L287 1317H340V1153H203V1305Z"/><glyph unicode="’" horiz-adv-x="543" d="M256 1352H203V1516H340V1364L260 1153H215L256 1352Z"/><glyph unicode="‚" horiz-adv-x="543" d="M256 0H203V164H340V12L260 -199H215L256 0Z"/><glyph unicode="“" horiz-adv-x="895" d="M555 1305L635 1516H680L639 1317H692V1153H555V1305ZM203 1305L283 1516H328L287 1317H340V1153H203V1305Z"/><glyph unicode="”" horiz-adv-x="895" d="M608 1352H555V1516H692V1364L612 1153H567L608 1352ZM256 1352H203V1516H340V1364L260 1153H215L256 1352Z"/><glyph unicode="„" horiz-adv-x="895" d="M608 0H555V164H692V12L612 -199H567L608 0ZM256 0H203V164H340V12L260 -199H215L256 0Z"/><glyph unicode="†" horiz-adv-x="1112" d="M520 893L109 874V975L520 954L500 1516H612L592 954L1004 975V874L592 893L612 -410H500L520 893Z"/><glyph unicode="‡" horiz-adv-x="1112" d="M520 96L119 76V176L520 158L508 559L520 950L119 932V1032L520 1012L500 1516H612L592 1012L993 1032V932L592 950L604 559L592 158L993 176V76L592 96L612 -410H500L520 96Z"/><glyph unicode="•" horiz-adv-x="948" d="M473 485Q423 485 381 502T308 551T260 624T242 717Q242 768 259 810T307 884T380 932T473 950Q524 950 566 933T640 884T689 811T707 717Q707 667 690 625T641 551T567 503T473 485Z"/><glyph unicode="…" horiz-adv-x="1628" d="M745 164H883V0H745V164ZM203 164H340V0H203V164ZM1288 164H1425V0H1288V164Z"/><glyph unicode="‰" horiz-adv-x="2740" d="M459 645Q381 645 321 677T219 768T156 907T135 1085Q135 1189 158 1272T224 1414T327 1504T463 1536Q538 1536 597 1505T698 1417T762 1277T784 1094Q784 997 763 915T700 773T598 679T459 645ZM1460 -20Q1382 -20 1322 12T1220 103T1158 242T1137 420Q1137 523 1160 606T1226 748T1329 838T1464 870Q1539 870 1598 839T1699 751T1763 611T1786 428Q1786 331 1764 249T1701 107T1599 14T1460 -20ZM2279 -20Q2201 -20 2141 12T2040 103T1977 242T1956 420Q1956 523 1979 606T2045 748T2148 838T2284 870Q2358 870 2417 839T2518 751T2582 611T2605 428Q2605 331 2583 249T2520 107T2418 14T2279 -20ZM461 733Q515 733 557 761T627 838T671 952T686 1090Q686 1169 671 1234T627 1347T556 1421T459 1448Q404 1448 362 1420T292 1344T248 1232T233 1094Q233 1015 248 949T292 834T363 760T461 733ZM1462 68Q1517 68 1559 96T1629 172T1673 286T1688 424Q1688 503 1673 569T1629 682T1558 755T1460 782Q1406 782 1364 754T1294 678T1250 566T1235 428Q1235 349 1250 283T1294 169T1365 95T1462 68ZM2281 68Q2336 68 2378 96T2448 172T2492 286T2507 424Q2507 503 2492 569T2448 682T2377 755T2279 782Q2225 782 2183 754T2113 678T2069 566T2054 428Q2054 349 2069 283T2113 169T2184 95T2281 68ZM1364 1516H1462L557 0H459L1364 1516Z"/><glyph unicode="‹" horiz-adv-x="641" d="M102 539L397 1075H506L215 539L506 0H397L102 539Z"/><glyph unicode="›" horiz-adv-x="641" d="M426 539L133 1075H242L539 539L242 0H133L426 539Z"/><glyph unicode="⁄" horiz-adv-x="918" d="M850 1516H948L68 0H-31L850 1516Z"/><glyph unicode="⁰" horiz-adv-x="938" d="M471 561Q388 561 325 595T218 691T152 843T129 1042Q129 1152 151 1242T217 1396T324 1496T471 1532Q552 1532 614 1497T720 1397T786 1242T809 1042Q809 932 787 843T721 692T615 595T471 561ZM471 641Q587 641 654 742T721 1042Q721 1140 703 1216T652 1344T573 1423T471 1450Q350 1450 284 1345T217 1042Q217 943 235 868T286 743T366 667T471 641Z"/><glyph unicode="⁴" horiz-adv-x="870" d="M549 809H117V870L539 1516H637V895H791V809H637V578H549V809ZM549 895V1378L231 895H549Z"/><glyph unicode="⁵" horiz-adv-x="852" d="M420 561Q369 561 324 575T239 614T166 675T109 754L182 799Q224 728 281 685T422 641Q480 641 523 661T595 714T637 790T651 879Q651 936 635 979T592 1052T526 1097T444 1112Q408 1112 380 1106T328 1086T284 1053T246 1006L162 1040L193 1516H690L682 1427H274L250 1112Q278 1147 326 1170T455 1194Q513 1194 564 1173T655 1111T716 1013T739 883Q739 811 717 752T653 651T553 585T420 561Z"/><glyph unicode="⁶" horiz-adv-x="885" d="M459 561Q392 561 332 589T227 675T156 822T129 1034Q129 1139 152 1229T220 1387T333 1493T489 1532Q574 1532 638 1505T748 1434L694 1370Q670 1389 648 1404T602 1430T551 1446T487 1452Q424 1452 374 1425T290 1347T236 1222T215 1053Q237 1077 263 1100T322 1140T391 1167T473 1178Q552 1178 608 1154T701 1090T755 995T772 879Q772 812 750 754T688 653T589 586T459 561ZM461 643Q510 643 550 658T620 704T666 778T682 879Q682 927 670 966T631 1035T565 1080T469 1096Q395 1096 332 1055T221 950Q229 869 251 811T305 716T378 661T461 643Z"/><glyph unicode="⁷" horiz-adv-x="821" d="M598 1427H125V1516H698V1444L301 578H207L598 1427Z"/><glyph unicode="⁸" horiz-adv-x="883" d="M440 561Q362 561 301 580T197 634T132 712T109 807Q109 856 124 894T169 965T242 1023T340 1075Q295 1096 260 1118T201 1166T165 1225T152 1298Q152 1344 172 1386T229 1461T320 1512T440 1532Q509 1532 563 1513T654 1461T711 1386T731 1298Q731 1257 717 1226T677 1170T613 1124T530 1081Q586 1054 631 1027T708 967T757 895T774 807Q774 758 751 714T685 635T580 581T440 561ZM440 641Q492 641 536 653T613 687T664 741T682 811Q682 848 665 879T614 938T535 990T430 1038Q367 1011 323 986T251 934T210 878T197 811Q197 773 215 742T266 689T343 654T440 641ZM442 1118Q494 1141 531 1160T593 1200T629 1243T641 1298Q641 1326 629 1353T592 1402T530 1437T440 1450Q391 1450 354 1438T291 1404T253 1357T240 1303Q240 1271 251 1247T287 1203T350 1162T442 1118Z"/><glyph unicode="⁹" horiz-adv-x="885" d="M395 561Q310 561 246 588T137 659L190 723Q215 704 237 689T283 663T334 647T397 641Q460 641 510 668T595 746T649 871T670 1040Q647 1016 621 993T562 953T493 926T412 915Q333 915 277 939T184 1003T130 1098T113 1214Q113 1281 135 1339T197 1440T296 1507T426 1532Q493 1532 553 1504T658 1418T729 1271T756 1059Q756 954 733 864T664 706T551 600T395 561ZM416 997Q490 997 553 1038T664 1143Q656 1224 634 1282T579 1377T507 1432T424 1450Q375 1450 335 1435T265 1389T219 1315T203 1214Q203 1166 215 1127T253 1058T319 1013T416 997Z"/><glyph unicode="₀" horiz-adv-x="938" d="M471 -425Q388 -425 325 -391T218 -295T152 -143T129 56Q129 166 151 256T217 410T324 510T471 546Q552 546 614 511T720 411T786 256T809 56Q809 -54 787 -143T721 -294T615 -391T471 -425ZM471 -345Q587 -345 654 -244T721 56Q721 154 703 230T652 358T573 437T471 464Q350 464 284 359T217 56Q217 -43 235 -118T286 -243T366 -319T471 -345Z"/><glyph unicode="₁" horiz-adv-x="719" d="M165 -322H339V417Q304 401 259 393T169 384V470Q231 472 276 485T351 530H431V-322H589V-408H165V-322Z"/><glyph unicode="₂" horiz-adv-x="899" d="M143 -372Q143 -321 158 -272T210 -173T308 -70T463 44Q511 75 545 103T601 159T634 219T645 286Q645 364 599 414T461 464Q384 464 333 424T238 294L158 333Q209 444 286 497T463 550Q527 550 577 531T663 477T718 394T737 288Q737 238 724 197T681 117T604 40T487 -42Q370 -116 310 -186T242 -318H741V-408H143V-372Z"/><glyph unicode="₃" horiz-adv-x="899" d="M446 -427Q344 -427 262 -377T123 -230L197 -181Q249 -269 311 -304T449 -339Q499 -339 538 -326T605 -287T647 -228T662 -152Q662 -102 647 -64T598 0T508 39T371 52H324V130H379Q517 130 580 173T643 304Q643 338 633 367T599 417T540 451T453 464Q383 464 331 431T236 341L164 388Q219 462 289 506T455 550Q531 550 584 529T672 474T721 396T737 308Q737 230 697 174T575 91Q671 62 713 3T756 -150Q756 -207 735 -257T673 -345T576 -405T446 -427Z"/><glyph unicode="₄" horiz-adv-x="870" d="M549 -177H117V-116L539 530H637V-91H791V-177H637V-408H549V-177ZM549 -91V392L231 -91H549Z"/><glyph unicode="₅" horiz-adv-x="852" d="M420 -425Q369 -425 324 -411T239 -372T166 -311T109 -232L182 -187Q224 -258 281 -301T422 -345Q480 -345 523 -325T595 -272T637 -196T651 -107Q651 -50 635 -7T592 66T526 111T444 126Q408 126 380 120T328 100T284 67T246 20L162 54L193 530H690L682 441H274L250 126Q278 161 326 184T455 208Q513 208 564 187T655 125T716 27T739 -103Q739 -175 717 -234T653 -335T553 -401T420 -425Z"/><glyph unicode="₆" horiz-adv-x="885" d="M459 -425Q392 -425 332 -397T227 -311T156 -164T129 48Q129 153 152 243T220 401T333 507T489 546Q574 546 638 519T748 448L694 384Q670 403 648 418T602 444T551 460T487 466Q424 466 374 439T290 361T236 236T215 67Q237 91 263 114T322 154T391 181T473 192Q552 192 608 168T701 104T755 9T772 -107Q772 -174 750 -232T688 -333T589 -400T459 -425ZM461 -343Q510 -343 550 -328T620 -282T666 -208T682 -107Q682 -59 670 -20T631 49T565 94T469 110Q395 110 332 69T221 -36Q229 -117 251 -175T305 -270T378 -325T461 -343Z"/><glyph unicode="₇" horiz-adv-x="821" d="M598 441H125V530H698V458L301 -408H207L598 441Z"/><glyph unicode="₈" horiz-adv-x="883" d="M440 -425Q362 -425 301 -406T197 -352T132 -274T109 -179Q109 -130 124 -92T169 -21T242 37T340 89Q295 110 260 132T201 180T165 239T152 312Q152 358 172 400T229 475T320 526T440 546Q509 546 563 527T654 475T711 400T731 312Q731 271 717 240T677 184T613 138T530 95Q586 68 631 41T708 -19T757 -91T774 -179Q774 -228 751 -272T685 -351T580 -405T440 -425ZM440 -345Q492 -345 536 -333T613 -299T664 -245T682 -175Q682 -138 665 -107T614 -48T535 4T430 52Q367 25 323 0T251 -52T210 -108T197 -175Q197 -213 215 -244T266 -297T343 -332T440 -345ZM442 132Q494 155 531 174T593 214T629 257T641 312Q641 340 629 367T592 416T530 451T440 464Q391 464 354 452T291 418T253 371T240 317Q240 285 251 261T287 217T350 176T442 132Z"/><glyph unicode="₉" horiz-adv-x="885" d="M395 -425Q310 -425 246 -398T137 -327L190 -263Q215 -282 237 -297T283 -323T334 -339T397 -345Q460 -345 510 -318T595 -240T649 -115T670 54Q647 30 621 7T562 -33T493 -60T412 -71Q333 -71 277 -47T184 17T130 112T113 228Q113 295 135 353T197 454T296 521T426 546Q493 546 553 518T658 432T729 285T756 73Q756 -32 733 -122T664 -280T551 -386T395 -425ZM416 11Q490 11 553 52T664 157Q656 238 634 296T579 391T507 446T424 464Q375 464 335 449T265 403T219 329T203 228Q203 180 215 141T253 72T319 27T416 11Z"/><glyph unicode="€" horiz-adv-x="1458" d="M43 866V958H307Q328 1110 380 1220T505 1403T666 1509T848 1544Q949 1544 1025 1512T1158 1422T1252 1284T1315 1106L1217 1083Q1193 1168 1165 1236T1095 1353T993 1426T846 1452Q768 1452 696 1423T566 1333T466 1179T406 958H903V866H395Q393 845 393 822T393 776Q393 744 394 712T397 651H903V557H408Q426 435 464 343T558 188T688 95T850 63Q934 63 997 89T1107 165T1186 287T1243 451L1339 428Q1314 328 1273 244T1171 100T1030 5T848 -29Q745 -29 655 6T495 115T376 298T307 557H43V651H299Q297 679 296 708T295 768Q295 794 296 818T297 866H43Z"/><glyph unicode="™" horiz-adv-x="1772" d="M858 1516H963L1247 758L1534 1516H1640V649H1554V1356L1282 649H1210L938 1356V649H858V1516ZM340 1440H63V1516H698V1440H422V649H340V1440Z"/><glyph unicode="∕" horiz-adv-x="918" d="M850 1516H948L68 0H-31L850 1516Z"/><glyph unicode="∙" horiz-adv-x="543" d="M203 725H340V561H203V725Z"/><glyph unicode="ﬀ" horiz-adv-x="1229" d="M246 987H57V1075H246V1257Q246 1326 267 1375T326 1455T419 1501T541 1516H594V1425Q582 1427 563 1427T528 1427Q487 1427 454 1418T396 1390T358 1340T344 1266V1075H834V1257Q834 1326 855 1375T914 1455T1007 1501T1128 1516H1182V1425Q1169 1427 1151 1427T1116 1427Q1075 1427 1042 1418T984 1390T946 1340T932 1266V1075H1169V987H932V0H834V987H344V0H246V987Z"/><glyph unicode="ﬁ" horiz-adv-x="1135" d="M246 987H57V1075H246V1257Q246 1326 267 1375T326 1455T419 1501T541 1516H594V1425Q582 1427 563 1427T528 1427Q487 1427 454 1418T396 1390T358 1340T344 1266V1075H582V987H344V0H246V987ZM834 1075H932V0H834V1075ZM829 1475H936V1350H829V1475Z"/><glyph unicode="ﬂ" horiz-adv-x="1135" d="M246 987H57V1075H246V1257Q246 1326 267 1375T326 1455T419 1501T541 1516H594V1425Q582 1427 563 1427T528 1427Q487 1427 454 1418T396 1390T358 1340T344 1266V1075H582V987H344V0H246V987ZM834 1516H932V0H834V1516Z"/><glyph unicode="ﬃ" horiz-adv-x="1704" d="M246 987H57V1075H246V1257Q246 1326 267 1375T326 1455T419 1501T541 1516H594V1425Q582 1427 563 1427T528 1427Q487 1427 454 1418T396 1390T358 1340T344 1266V1075H834V1257Q834 1326 855 1375T914 1455T1007 1501T1128 1516H1182V1425Q1169 1427 1151 1427T1116 1427Q1075 1427 1042 1418T984 1390T946 1340T932 1266V1075H1169V987H932V0H834V987H344V0H246V987ZM1421 1075H1520V0H1421V1075ZM1417 1475H1524V1350H1417V1475Z"/><glyph unicode="ﬄ" horiz-adv-x="1704" d="M246 987H57V1075H246V1257Q246 1326 267 1375T326 1455T419 1501T541 1516H594V1425Q582 1427 563 1427T528 1427Q487 1427 454 1418T396 1390T358 1340T344 1266V1075H834V1257Q834 1326 855 1375T914 1455T1007 1501T1128 1516H1182V1425Q1169 1427 1151 1427T1116 1427Q1075 1427 1042 1418T984 1390T946 1340T932 1266V1075H1169V987H932V0H834V987H344V0H246V987ZM1421 1513H1520V0H1421V1513Z"/></font>
</defs>
</svg>
